<svg width="313" height="209" viewBox="0 0 313 209" fill="none" xmlns="http://www.w3.org/2000/svg">
<path d="M103.17 121.526L106.24 119.746L109.3 121.516L106.23 123.286L103.17 121.526Z" fill="white"/>
<path d="M109.7 125.296L112.77 123.516L115.83 125.286L112.76 127.016L109.7 125.296Z" fill="white"/>
<path d="M116.23 129.066L119.31 127.296L122.37 129.056L119.3 130.836L116.23 129.066Z" fill="white"/>
<path d="M122.77 132.836L125.84 131.066L128.9 132.836L125.83 134.606L122.77 132.836Z" fill="white"/>
<path d="M129.3 136.616L132.37 134.836L135.44 136.606L132.36 138.376L129.3 136.616Z" fill="white"/>
<g style="mix-blend-mode:multiply" opacity="0.5">
<g style="mix-blend-mode:multiply" opacity="0.5">
<g style="mix-blend-mode:multiply" opacity="0.5">
<path d="M255.45 183.036H79.4502V208.926H255.45V183.036Z" fill="white"/>
</g>
<g style="mix-blend-mode:multiply" opacity="0.5">
<path d="M167.283 207.125C210.797 206.882 246.045 201.949 246.013 196.106C245.98 190.262 210.679 185.723 167.165 185.966C123.651 186.209 88.4024 191.143 88.4351 196.986C88.4677 202.829 123.769 207.368 167.283 207.125Z" fill="white"/>
</g>
<g style="mix-blend-mode:multiply" opacity="0.5">
<path d="M167.013 207.087C210.355 206.845 245.465 201.93 245.432 196.109C245.4 190.288 210.237 185.765 166.895 186.007C123.552 186.249 88.4424 191.164 88.4749 196.985C88.5074 202.806 123.67 207.329 167.013 207.087Z" fill="white"/>
</g>
<g style="mix-blend-mode:multiply" opacity="0.5">
<path d="M166.742 207.028C209.913 206.787 244.885 201.895 244.852 196.102C244.82 190.309 209.796 185.808 166.625 186.049C123.453 186.29 88.4823 191.182 88.5146 196.975C88.547 202.769 123.571 207.27 166.742 207.028Z" fill="white"/>
</g>
<g style="mix-blend-mode:multiply" opacity="0.5">
<path d="M166.472 206.99C209.478 206.749 244.314 201.876 244.282 196.105C244.25 190.334 209.361 185.85 166.355 186.09C123.349 186.33 88.5125 191.203 88.5447 196.975C88.5769 202.746 123.466 207.23 166.472 206.99Z" fill="white"/>
</g>
<g style="mix-blend-mode:multiply" opacity="0.5">
<path d="M166.201 206.951C209.036 206.712 243.734 201.858 243.702 196.108C243.67 190.359 208.92 185.893 166.085 186.132C123.251 186.371 88.5524 191.226 88.5845 196.975C88.6166 202.724 123.367 207.191 166.201 206.951Z" fill="white"/>
</g>
<g style="mix-blend-mode:multiply" opacity="0.5">
<path d="M167.419 205.617C210.083 205.191 244.623 200.202 244.566 194.475C244.508 188.748 209.876 184.451 167.212 184.877C124.548 185.304 90.0083 190.293 90.0656 196.02C90.1229 201.747 124.755 206.044 167.419 205.617Z" fill="#FEFFFF"/>
</g>
<g style="mix-blend-mode:multiply" opacity="0.5">
<path d="M165.662 206.884C208.154 206.647 242.575 201.83 242.543 196.125C242.511 190.42 208.038 185.987 165.546 186.225C123.054 186.462 88.6333 191.279 88.6651 196.984C88.697 202.689 123.169 207.122 165.662 206.884Z" fill="#FEFFFF"/>
</g>
<g style="mix-blend-mode:multiply" opacity="0.5">
<path d="M165.391 206.846C207.712 206.61 241.994 201.811 241.963 196.128C241.931 190.445 207.597 186.03 165.276 186.266C122.955 186.503 88.6732 191.301 88.7049 196.984C88.7367 202.667 123.07 207.082 165.391 206.846Z" fill="#FEFEFF"/>
</g>
<g style="mix-blend-mode:multiply" opacity="0.5">
<path d="M165.121 206.807C207.271 206.572 241.414 201.792 241.382 196.131C241.351 190.47 207.156 186.072 165.006 186.308C122.857 186.543 88.7131 191.323 88.7447 196.984C88.7764 202.645 122.971 207.043 165.121 206.807Z" fill="#FEFEFF"/>
</g>
<g style="mix-blend-mode:multiply" opacity="0.5">
<path d="M164.85 206.749C206.829 206.514 240.834 201.757 240.802 196.124C240.771 190.491 206.715 186.114 164.736 186.349C122.758 186.583 88.753 191.34 88.7845 196.973C88.816 202.606 122.872 206.983 164.85 206.749Z" fill="#FEFEFF"/>
</g>
<g style="mix-blend-mode:multiply" opacity="0.5">
<path d="M164.58 206.71C206.387 206.477 240.253 201.739 240.222 196.128C240.191 190.517 206.274 186.157 164.466 186.391C122.659 186.624 88.793 191.362 88.8243 196.973C88.8557 202.584 122.773 206.944 164.58 206.71Z" fill="#FDFEFF"/>
</g>
<g style="mix-blend-mode:multiply" opacity="0.5">
<path d="M164.31 206.672C205.947 206.439 239.674 201.72 239.643 196.131C239.612 190.542 205.833 186.199 164.197 186.432C122.561 186.665 88.8339 191.384 88.8651 196.973C88.8963 202.562 122.674 206.904 164.31 206.672Z" fill="#FDFEFE"/>
</g>
<g style="mix-blend-mode:multiply" opacity="0.5">
<path d="M164.04 206.643C205.505 206.412 239.094 201.711 239.063 196.144C239.031 190.577 205.392 186.252 163.927 186.484C122.463 186.715 88.8738 191.416 88.9049 196.983C88.936 202.55 122.575 206.875 164.04 206.643Z" fill="#FDFEFE"/>
</g>
<g style="mix-blend-mode:multiply" opacity="0.5">
<path d="M165.256 205.309C206.556 204.896 239.991 200.066 239.936 194.521C239.88 188.976 206.355 184.816 165.055 185.229C123.756 185.642 90.3203 190.472 90.3758 196.017C90.4312 201.562 123.956 205.722 165.256 205.309Z" fill="#FDFEFE"/>
</g>
<g style="mix-blend-mode:multiply" opacity="0.5">
<path d="M163.499 206.566C204.627 206.336 237.943 201.673 237.912 196.15C237.882 190.628 204.516 186.337 163.388 186.567C122.26 186.796 88.944 191.46 88.9748 196.982C89.0056 202.505 122.371 206.796 163.499 206.566Z" fill="#FCFDFE"/>
</g>
<g style="mix-blend-mode:multiply" opacity="0.5">
<path d="M163.229 206.518C204.186 206.289 237.363 201.644 237.332 196.144C237.302 190.643 204.075 186.369 163.118 186.598C122.161 186.827 88.9839 191.471 89.0146 196.972C89.0453 202.473 122.272 206.746 163.229 206.518Z" fill="#FCFDFE"/>
</g>
<g style="mix-blend-mode:multiply" opacity="0.5">
<path d="M162.96 206.469C203.745 206.241 236.784 201.62 236.753 196.147C236.722 190.674 203.634 186.422 162.849 186.65C122.063 186.877 89.0248 191.499 89.0553 196.972C89.0859 202.445 122.174 206.697 162.96 206.469Z" fill="#FCFDFE"/>
</g>
<g style="mix-blend-mode:multiply" opacity="0.5">
<path d="M162.689 206.431C203.304 206.204 236.203 201.601 236.173 196.15C236.142 190.699 203.193 186.464 162.579 186.691C121.964 186.918 89.0647 191.521 89.0952 196.972C89.1256 202.423 122.075 206.658 162.689 206.431Z" fill="#FBFDFE"/>
</g>
<g style="mix-blend-mode:multiply" opacity="0.5">
<path d="M235.61 196.136C235.61 201.566 202.88 206.136 162.44 206.386C122 206.636 89.1804 202.386 89.1504 196.966C89.1204 191.546 121.88 186.966 162.33 186.716C202.78 186.466 235.58 190.706 235.61 196.136Z" fill="#FBFDFE"/>
</g>
<g style="mix-blend-mode:multiply" opacity="0.5">
<path d="M162.148 206.364C202.42 206.139 235.043 201.574 235.013 196.167C234.982 190.76 202.311 186.559 162.039 186.784C121.767 187.009 89.1446 191.574 89.1748 196.981C89.205 202.388 121.876 206.589 162.148 206.364Z" fill="#FBFCFE"/>
</g>
<g style="mix-blend-mode:multiply" opacity="0.5">
<path d="M161.878 206.326C201.979 206.102 234.462 201.555 234.432 196.17C234.402 190.786 201.87 186.602 161.769 186.826C121.668 187.05 89.1845 191.597 89.2146 196.981C89.2447 202.366 121.777 206.55 161.878 206.326Z" fill="#FAFCFE"/>
</g>
<g style="mix-blend-mode:multiply" opacity="0.5">
<path d="M161.609 206.287C201.538 206.064 233.883 201.536 233.853 196.173C233.823 190.811 201.43 186.644 161.5 186.867C121.57 187.09 89.2255 191.618 89.2554 196.981C89.2854 202.343 121.679 206.51 161.609 206.287Z" fill="#FAFCFD"/>
</g>
<g style="mix-blend-mode:multiply" opacity="0.5">
<path d="M161.338 206.238C201.096 206.016 233.303 201.507 233.273 196.167C233.243 190.826 200.988 186.677 161.23 186.899C121.472 187.121 89.2654 191.63 89.2952 196.971C89.325 202.311 121.58 206.46 161.338 206.238Z" fill="#FAFCFD"/>
</g>
<g style="mix-blend-mode:multiply" opacity="0.5">
<path d="M161.068 206.19C200.66 205.969 232.733 201.483 232.703 196.17C232.673 190.857 200.553 186.729 160.96 186.95C121.368 187.171 89.2955 191.658 89.3252 196.97C89.3549 202.283 121.475 206.411 161.068 206.19Z" fill="#F9FCFD"/>
</g>
<g style="mix-blend-mode:multiply" opacity="0.5">
<path d="M160.797 206.152C200.219 205.931 232.152 201.464 232.123 196.173C232.093 190.882 200.112 186.772 160.69 186.992C121.269 187.212 89.3355 191.68 89.365 196.97C89.3946 202.261 121.376 206.372 160.797 206.152Z" fill="#F9FBFD"/>
</g>
<g style="mix-blend-mode:multiply" opacity="0.5">
<path d="M160.527 206.113C199.777 205.894 231.572 201.445 231.543 196.176C231.513 190.907 199.671 186.814 160.42 187.033C121.17 187.252 89.3754 191.701 89.4048 196.97C89.4343 202.239 121.277 206.332 160.527 206.113Z" fill="#F8FBFD"/>
</g>
<g style="mix-blend-mode:multiply" opacity="0.5">
<path d="M161.741 204.794C200.821 204.403 232.458 199.833 232.406 194.586C232.354 189.34 200.631 185.403 161.551 185.794C122.471 186.185 90.8335 190.755 90.886 196.001C90.9385 201.248 122.661 205.185 161.741 204.794Z" fill="#F8FBFD"/>
</g>
<g style="mix-blend-mode:multiply" opacity="0.5">
<path d="M159.986 206.046C198.894 205.828 230.411 201.417 230.382 196.192C230.353 190.968 198.788 186.909 159.881 187.126C120.973 187.343 89.4553 191.755 89.4845 196.979C89.5137 202.204 121.078 206.263 159.986 206.046Z" fill="#F8FAFD"/>
</g>
<g style="mix-blend-mode:multiply" opacity="0.5">
<path d="M229.82 196.166C229.82 201.366 198.47 205.766 159.74 205.976C121.01 206.186 89.5698 202.156 89.5498 196.976C89.5298 191.796 120.89 187.386 159.63 187.166C198.37 186.946 229.79 191.016 229.82 196.166Z" fill="#F7FAFC"/>
</g>
<g style="mix-blend-mode:multiply" opacity="0.5">
<path d="M159.446 205.949C198.012 205.733 229.252 201.364 229.223 196.189C229.194 191.014 197.907 186.994 159.342 187.209C120.776 187.425 89.5361 191.794 89.565 196.969C89.5939 202.144 120.881 206.164 159.446 205.949Z" fill="#F7FAFC"/>
</g>
<g style="mix-blend-mode:multiply" opacity="0.5">
<path d="M159.176 205.911C197.57 205.696 228.671 201.345 228.643 196.192C228.614 191.04 197.466 187.036 159.072 187.251C120.677 187.465 89.5761 191.816 89.6048 196.969C89.6336 202.122 120.782 206.125 159.176 205.911Z" fill="#F6FAFC"/>
</g>
<g style="mix-blend-mode:multiply" opacity="0.5">
<path d="M228.09 196.176C228.09 201.306 197.15 205.646 158.93 205.856C120.71 206.066 89.6902 202.086 89.6602 196.956C89.6302 191.826 120.6 187.496 158.82 187.276C197.04 187.056 228.06 191.016 228.09 196.176Z" fill="#F6F9FC"/>
</g>
<g style="mix-blend-mode:multiply" opacity="0.5">
<path d="M158.646 205.834C196.698 205.621 227.522 201.308 227.493 196.199C227.465 191.09 196.594 187.121 158.542 187.334C120.491 187.546 89.6667 191.86 89.6952 196.969C89.7237 202.077 120.594 206.046 158.646 205.834Z" fill="#F5F9FC"/>
</g>
<g style="mix-blend-mode:multiply" opacity="0.5">
<path d="M158.376 205.795C196.262 205.583 226.952 201.288 226.923 196.202C226.895 191.115 196.159 187.164 158.273 187.375C120.387 187.587 89.6969 191.882 89.7253 196.968C89.7537 202.055 120.489 206.006 158.376 205.795Z" fill="#F5F9FC"/>
</g>
<g style="mix-blend-mode:multiply" opacity="0.5">
<path d="M158.105 205.766C195.82 205.556 226.371 201.28 226.343 196.215C226.315 191.151 195.718 187.216 158.003 187.427C120.288 187.637 89.7368 191.914 89.7651 196.978C89.7934 202.042 120.39 205.977 158.105 205.766Z" fill="#F4F9FC"/>
</g>
<g style="mix-blend-mode:multiply" opacity="0.5">
<path d="M157.835 205.718C195.379 205.508 225.791 201.251 225.763 196.208C225.735 191.166 195.277 187.249 157.733 187.458C120.189 187.668 89.7767 191.925 89.8049 196.968C89.8331 202.01 120.291 205.928 157.835 205.718Z" fill="#F4F8FB"/>
</g>
<g style="mix-blend-mode:multiply" opacity="0.5">
<path d="M157.564 205.669C194.937 205.461 225.211 201.226 225.183 196.212C225.155 191.197 194.835 187.301 157.463 187.51C120.09 187.718 89.8166 191.953 89.8447 196.968C89.8727 201.982 120.192 205.878 157.564 205.669Z" fill="#F3F8FB"/>
</g>
<g style="mix-blend-mode:multiply" opacity="0.5">
<path d="M157.295 205.631C194.496 205.423 224.631 201.207 224.603 196.215C224.575 191.222 194.395 187.343 157.194 187.551C119.993 187.759 89.8576 191.975 89.8854 196.967C89.9133 201.96 120.094 205.839 157.295 205.631Z" fill="#F3F8FB"/>
</g>
<g style="mix-blend-mode:multiply" opacity="0.5">
<path d="M157.024 205.593C194.055 205.386 224.051 201.189 224.023 196.218C223.995 191.248 193.954 187.386 156.924 187.593C119.894 187.8 89.8975 191.997 89.9253 196.967C89.953 201.938 119.994 205.799 157.024 205.593Z" fill="#F2F7FB"/>
</g>
<g style="mix-blend-mode:multiply" opacity="0.5">
<path d="M156.754 205.554C193.613 205.348 223.471 201.17 223.443 196.221C223.415 191.273 193.513 187.428 156.654 187.634C119.795 187.84 89.9374 192.018 89.9651 196.967C89.9927 201.915 119.895 205.76 156.754 205.554Z" fill="#F2F7FB"/>
</g>
<g style="mix-blend-mode:multiply" opacity="0.5">
<path d="M222.88 196.206C222.88 201.126 193.19 205.296 156.5 205.496C119.81 205.696 90 201.876 90 196.956C90 192.036 119.69 187.866 156.38 187.666C193.07 187.466 222.85 191.276 222.88 196.206Z" fill="#F1F7FB"/>
</g>
<g style="mix-blend-mode:multiply" opacity="0.5">
<path d="M156.213 205.487C192.73 205.283 222.31 201.142 222.283 196.238C222.255 191.334 192.631 187.523 156.114 187.727C119.598 187.931 90.0173 192.072 90.0447 196.977C90.0721 201.881 119.697 205.691 156.213 205.487Z" fill="#F1F6FA"/>
</g>
<g style="mix-blend-mode:multiply" opacity="0.5">
<path d="M157.424 204.177C193.77 203.814 223.195 199.561 223.146 194.679C223.097 189.797 193.593 186.134 157.247 186.497C120.902 186.861 91.4771 191.113 91.5259 195.995C91.5747 200.877 121.078 204.541 157.424 204.177Z" fill="#F0F6FA"/>
</g>
<g style="mix-blend-mode:multiply" opacity="0.5">
<path d="M221.14 196.216C221.14 201.076 191.86 205.216 155.69 205.376C119.52 205.536 90.1599 201.806 90.1299 196.956C90.0999 192.106 119.41 187.956 155.59 187.786C191.77 187.616 221.11 191.356 221.14 196.216Z" fill="#F0F6FA"/>
</g>
<g style="mix-blend-mode:multiply" opacity="0.5">
<path d="M220.56 196.216C220.56 201.056 191.42 205.136 155.42 205.336C119.42 205.536 90.1999 201.786 90.1699 196.956C90.1399 192.126 119.31 188.036 155.32 187.836C191.33 187.636 220.54 191.386 220.56 196.216Z" fill="#EFF5FA"/>
</g>
<g style="mix-blend-mode:multiply" opacity="0.5">
<path d="M220.001 196.216C220.001 201.036 191.001 205.096 155.171 205.296C119.341 205.496 90.2605 201.766 90.2305 196.956C90.2005 192.146 119.231 188.076 155.071 187.876C190.911 187.676 220.001 191.406 220.001 196.216Z" fill="#EEF5FA"/>
</g>
<g style="mix-blend-mode:multiply" opacity="0.5">
<path d="M219.41 196.226C219.41 201.016 190.54 205.056 154.88 205.226C119.22 205.396 90.28 201.706 90.25 196.926C90.22 192.146 119.11 188.086 154.78 187.926C190.45 187.766 219.38 191.436 219.41 196.226Z" fill="#EEF5FA"/>
</g>
<g style="mix-blend-mode:multiply" opacity="0.5">
<path d="M154.592 205.236C190.087 205.038 218.839 201.014 218.813 196.247C218.786 191.481 189.99 187.778 154.496 187.976C119.001 188.175 90.2481 192.199 90.2748 196.965C90.3014 201.731 119.097 205.434 154.592 205.236Z" fill="#EDF4F9"/>
</g>
<g style="mix-blend-mode:multiply" opacity="0.5">
<path d="M218.25 196.226C218.25 200.976 189.66 204.976 154.34 205.226C119.02 205.476 90.3398 201.746 90.3398 197.006C90.3398 192.266 118.93 188.256 154.25 188.056C189.57 187.856 218.22 191.486 218.25 196.226Z" fill="#EDF4F9"/>
</g>
<g style="mix-blend-mode:multiply" opacity="0.5">
<path d="M154.052 205.159C189.204 204.963 217.68 200.976 217.653 196.254C217.627 191.532 189.109 187.863 153.957 188.06C118.804 188.256 90.329 192.243 90.3554 196.965C90.3817 201.687 118.9 205.356 154.052 205.159Z" fill="#ECF3F9"/>
</g>
<g style="mix-blend-mode:multiply" opacity="0.5">
<path d="M153.782 205.111C188.763 204.915 217.099 200.952 217.073 196.257C217.047 191.563 188.668 187.916 153.687 188.111C118.705 188.306 90.3689 192.27 90.3951 196.965C90.4213 201.659 118.8 205.306 153.782 205.111Z" fill="#EBF3F9"/>
</g>
<g style="mix-blend-mode:multiply" opacity="0.5">
<path d="M216.51 196.236C216.51 200.916 188.34 204.866 153.51 205.056C118.68 205.246 90.4497 201.626 90.4297 196.946C90.4097 192.266 118.6 188.326 153.43 188.136C188.26 187.946 216.49 191.566 216.51 196.236Z" fill="#EBF3F9"/>
</g>
<g style="mix-blend-mode:multiply" opacity="0.5">
<path d="M215.93 196.246C215.93 200.896 187.93 204.826 153.26 205.016C118.59 205.206 90.5102 201.606 90.4902 196.946C90.4702 192.286 118.49 188.376 153.16 188.176C187.83 187.976 215.91 191.596 215.93 196.246Z" fill="#EAF2F8"/>
</g>
<g style="mix-blend-mode:multiply" opacity="0.5">
<path d="M152.971 204.995C187.444 204.803 215.369 200.895 215.343 196.267C215.317 191.639 187.35 188.043 152.877 188.235C118.404 188.428 90.479 192.336 90.5048 196.964C90.5307 201.592 118.498 205.188 152.971 204.995Z" fill="#EAF2F8"/>
</g>
<g style="mix-blend-mode:multiply" opacity="0.5">
<path d="M152.7 204.957C187.002 204.765 214.788 200.876 214.763 196.27C214.737 191.664 186.909 188.086 152.607 188.277C118.305 188.469 90.5189 192.358 90.5446 196.964C90.5704 201.57 118.398 205.148 152.7 204.957Z" fill="#E9F2F8"/>
</g>
<g style="mix-blend-mode:multiply" opacity="0.5">
<path d="M214.201 196.256C214.201 200.836 186.581 204.706 152.451 204.896C118.321 205.086 90.6306 201.536 90.6006 196.946C90.5706 192.356 118.221 188.496 152.351 188.306C186.481 188.116 214.171 191.666 214.201 196.256Z" fill="#E8F1F8"/>
</g>
<g style="mix-blend-mode:multiply" opacity="0.5">
<path d="M213.621 196.256C213.621 200.816 186.141 204.666 152.181 204.856C118.221 205.046 90.6706 201.506 90.6406 196.946C90.6106 192.386 118.121 188.536 152.081 188.346C186.041 188.156 213.591 191.696 213.621 196.256Z" fill="#E8F1F7"/>
</g>
<g style="mix-blend-mode:multiply" opacity="0.5">
<path d="M151.89 204.831C185.678 204.642 213.048 200.814 213.023 196.279C212.998 191.745 185.586 188.223 151.798 188.411C118.01 188.6 90.6397 192.429 90.665 196.963C90.6903 201.497 118.102 205.02 151.89 204.831Z" fill="#E7F0F7"/>
</g>
<g style="mix-blend-mode:multiply" opacity="0.5">
<path d="M151.619 204.793C185.237 204.605 212.468 200.795 212.443 196.283C212.418 191.771 185.145 188.265 151.528 188.453C117.911 188.641 90.6796 192.451 90.7048 196.963C90.73 201.475 118.002 204.981 151.619 204.793Z" fill="#E6F0F7"/>
</g>
<g style="mix-blend-mode:multiply" opacity="0.5">
<path d="M152.827 203.513C186.273 203.178 213.351 199.267 213.306 194.777C213.261 190.287 186.111 186.918 152.665 187.253C119.218 187.587 92.1409 191.498 92.1858 195.988C92.2307 200.478 119.381 203.847 152.827 203.513Z" fill="#E6EFF7"/>
</g>
<g style="mix-blend-mode:multiply" opacity="0.5">
<path d="M151.08 204.716C184.354 204.53 211.308 200.757 211.284 196.289C211.259 191.822 184.264 188.35 150.989 188.536C117.715 188.722 90.7605 192.495 90.7854 196.962C90.8104 201.43 117.805 204.902 151.08 204.716Z" fill="#E5EFF7"/>
</g>
<g style="mix-blend-mode:multiply" opacity="0.5">
<path d="M150.809 204.667C183.913 204.482 210.728 200.728 210.703 196.283C210.679 191.837 183.823 188.383 150.719 188.568C117.616 188.752 90.8004 192.506 90.8252 196.952C90.8501 201.398 117.706 204.852 150.809 204.667Z" fill="#E4EFF6"/>
</g>
<g style="mix-blend-mode:multiply" opacity="0.5">
<path d="M150.539 204.629C183.471 204.445 210.148 200.709 210.123 196.286C210.098 191.862 183.382 188.425 150.449 188.609C117.517 188.793 90.8403 192.528 90.865 196.952C90.8898 201.376 117.607 204.813 150.539 204.629Z" fill="#E4EEF6"/>
</g>
<g style="mix-blend-mode:multiply" opacity="0.5">
<path d="M209.57 196.276C209.57 200.676 183.05 204.396 150.29 204.576C117.53 204.756 90.9399 201.346 90.9199 196.946C90.8999 192.546 117.43 188.836 150.2 188.646C182.97 188.456 209.54 191.876 209.57 196.276Z" fill="#E3EEF6"/>
</g>
<g style="mix-blend-mode:multiply" opacity="0.5">
<path d="M209.001 196.276C209.001 200.656 182.621 204.356 150.001 204.536C117.381 204.716 91.0005 201.326 90.9405 196.946C90.8805 192.566 117.311 188.876 149.941 188.686C182.571 188.496 209.001 191.906 209.001 196.276Z" fill="#E2EDF6"/>
</g>
<g style="mix-blend-mode:multiply" opacity="0.5">
<path d="M149.729 204.513C182.153 204.332 208.418 200.658 208.394 196.306C208.37 191.954 182.065 188.573 149.641 188.754C117.217 188.935 90.9513 192.609 90.9757 196.961C91 201.313 117.305 204.695 149.729 204.513Z" fill="#E1EDF6"/>
</g>
<g style="mix-blend-mode:multiply" opacity="0.5">
<path d="M207.83 196.286C207.83 200.616 181.73 204.286 149.48 204.456C117.23 204.626 91.0603 201.276 91.0303 196.946C91.0003 192.616 117.14 188.946 149.39 188.776C181.64 188.606 207.81 191.956 207.83 196.286Z" fill="#E1ECF5"/>
</g>
<g style="mix-blend-mode:multiply" opacity="0.5">
<path d="M207.25 196.286C207.25 200.596 181.25 204.286 149.25 204.416C117.25 204.546 91.1404 201.256 91.1104 196.946C91.0804 192.636 117.11 188.996 149.16 188.816C181.21 188.636 207.23 192.016 207.25 196.286Z" fill="#E0ECF5"/>
</g>
<g style="mix-blend-mode:multiply" opacity="0.5">
<path d="M206.67 196.296C206.67 200.576 180.85 204.196 148.94 204.376C117.03 204.556 91.1404 201.226 91.1104 196.946C91.0804 192.666 116.94 189.046 148.85 188.866C180.76 188.686 206.65 192.016 206.67 196.296Z" fill="#DFECF5"/>
</g>
<g style="mix-blend-mode:multiply" opacity="0.5">
<path d="M206.09 196.296C206.09 200.556 180.41 204.156 148.67 204.296C116.93 204.436 91.1804 201.166 91.1504 196.906C91.1204 192.646 116.84 189.046 148.58 188.906C180.32 188.766 206.07 192.016 206.09 196.296Z" fill="#DFEBF5"/>
</g>
<g style="mix-blend-mode:multiply" opacity="0.5">
<path d="M148.378 204.311C179.946 204.134 205.518 200.557 205.494 196.321C205.47 192.085 179.86 188.794 148.292 188.971C116.724 189.147 91.152 192.724 91.1756 196.96C91.1993 201.196 116.809 204.487 148.378 204.311Z" fill="#DEEBF4"/>
</g>
<g style="mix-blend-mode:multiply" opacity="0.5">
<path d="M148.107 204.272C179.504 204.097 204.937 200.539 204.914 196.325C204.89 192.111 179.419 188.837 148.022 189.013C116.625 189.188 91.1919 192.746 91.2155 196.96C91.239 201.174 116.71 204.448 148.107 204.272Z" fill="#DDEAF4"/>
</g>
<g style="mix-blend-mode:multiply" opacity="0.5">
<path d="M204.361 196.306C204.361 200.496 179.08 204.036 147.861 204.216C116.641 204.396 91.2905 201.136 91.2705 196.946C91.2505 192.756 116.541 189.206 147.771 189.036C179.001 188.866 204.331 192.116 204.361 196.306Z" fill="#DCEAF4"/>
</g>
<g style="mix-blend-mode:multiply" opacity="0.5">
<path d="M147.567 204.195C178.627 204.022 203.787 200.501 203.764 196.331C203.74 192.162 178.542 188.922 147.482 189.096C116.422 189.269 91.262 192.79 91.2853 196.96C91.3086 201.129 116.507 204.369 147.567 204.195Z" fill="#DCE9F4"/>
</g>
<g style="mix-blend-mode:multiply" opacity="0.5">
<path d="M147.296 204.147C178.185 203.974 203.207 200.472 203.183 196.325C203.16 192.177 178.101 188.955 147.212 189.127C116.324 189.3 91.302 192.802 91.3251 196.949C91.3483 201.097 116.407 204.319 147.296 204.147Z" fill="#DBE9F3"/>
</g>
<g style="mix-blend-mode:multiply" opacity="0.5">
<path d="M202.621 196.316C202.621 200.436 177.761 203.926 147.051 204.096C116.341 204.266 91.4106 201.096 91.3906 196.946C91.3706 192.796 116.251 189.336 146.961 189.166C177.671 188.996 202.601 192.186 202.621 196.316Z" fill="#DAE8F3"/>
</g>
<g style="mix-blend-mode:multiply" opacity="0.5">
<path d="M202.001 196.316C202.001 200.416 177.281 203.886 146.741 204.056C116.201 204.226 91.4106 201.056 91.3906 196.946C91.3706 192.836 116.111 189.376 146.651 189.206C177.191 189.036 202.001 192.216 202.001 196.316Z" fill="#D9E8F3"/>
</g>
<g style="mix-blend-mode:multiply" opacity="0.5">
<path d="M146.486 204.021C176.861 203.852 201.467 200.41 201.444 196.334C201.421 192.259 176.779 189.092 146.403 189.262C116.028 189.431 91.4228 192.873 91.4455 196.949C91.4683 201.025 116.111 204.191 146.486 204.021Z" fill="#D8E7F3"/>
</g>
<g style="mix-blend-mode:multiply" opacity="0.5">
<path d="M146.215 203.993C176.419 203.824 200.886 200.401 200.864 196.348C200.841 192.294 176.337 189.145 146.133 189.313C115.93 189.482 91.4627 192.905 91.4853 196.959C91.508 201.012 116.011 204.162 146.215 203.993Z" fill="#D8E7F2"/>
</g>
<g style="mix-blend-mode:multiply" opacity="0.5">
<path d="M200.31 196.326C200.31 200.326 176 203.766 145.97 203.936C115.94 204.106 91.5701 200.936 91.5401 196.936C91.5101 192.936 115.85 189.506 145.88 189.336C175.91 189.166 200.28 192.296 200.31 196.326Z" fill="#D7E6F2"/>
</g>
<g style="mix-blend-mode:multiply" opacity="0.5">
<path d="M199.73 196.326C199.73 200.326 175.56 203.726 145.73 203.896C115.9 204.066 91.6404 200.946 91.6104 196.896C91.5804 192.846 115.78 189.506 145.61 189.336C175.44 189.166 199.7 192.316 199.73 196.326Z" fill="#D6E6F2"/>
</g>
<g style="mix-blend-mode:multiply" opacity="0.5">
<path d="M145.415 203.867C175.105 203.701 199.156 200.334 199.134 196.347C199.112 192.359 175.025 189.261 145.334 189.427C115.644 189.593 91.5932 192.96 91.6155 196.947C91.6378 200.935 115.725 204.033 145.415 203.867Z" fill="#D5E5F2"/>
</g>
<g style="mix-blend-mode:multiply" opacity="0.5">
<path d="M198.57 196.336C198.57 200.336 174.68 203.646 145.16 203.816C115.64 203.986 91.6802 200.906 91.6602 196.936C91.6402 192.966 115.55 189.626 145.07 189.466C174.59 189.306 198.55 192.376 198.57 196.336Z" fill="#D4E5F1"/>
</g>
<g style="mix-blend-mode:multiply" opacity="0.5">
<path d="M198 196.336C198 200.276 174.25 203.606 144.9 203.776C115.55 203.946 91.73 200.876 91.71 196.936C91.69 192.996 115.46 189.666 144.82 189.506C174.18 189.346 198 192.396 198 196.336Z" fill="#D4E4F1"/>
</g>
<g style="mix-blend-mode:multiply" opacity="0.5">
<path d="M144.604 203.742C173.786 203.579 197.425 200.273 197.404 196.357C197.382 192.441 173.707 189.399 144.525 189.562C115.342 189.725 91.7033 193.032 91.7251 196.947C91.747 200.863 115.422 203.905 144.604 203.742Z" fill="#D3E4F1"/>
</g>
<g style="mix-blend-mode:multiply" opacity="0.5">
<path d="M144.334 203.713C173.345 203.551 196.845 200.263 196.823 196.37C196.802 192.476 173.266 189.451 144.255 189.613C115.244 189.775 91.7432 193.063 91.765 196.957C91.7867 200.85 115.322 203.875 144.334 203.713Z" fill="#D2E3F0"/>
</g>
<g style="mix-blend-mode:multiply" opacity="0.5">
<path d="M144.064 203.675C172.904 203.514 196.266 200.245 196.244 196.373C196.223 192.502 172.826 189.494 143.986 189.655C115.146 189.816 91.7841 193.085 91.8058 196.957C91.8274 200.828 115.224 203.836 144.064 203.675Z" fill="#D1E3F0"/>
</g>
<g style="mix-blend-mode:multiply" opacity="0.5">
<path d="M143.794 203.636C172.462 203.476 195.685 200.226 195.664 196.376C195.642 192.527 172.384 189.536 143.716 189.696C115.047 189.857 91.8241 193.107 91.8456 196.956C91.8671 200.806 115.125 203.796 143.794 203.636Z" fill="#D0E2F0"/>
</g>
<g style="mix-blend-mode:multiply" opacity="0.5">
<path d="M195.1 196.356C195.1 200.176 172.03 203.416 143.54 203.576C115.05 203.736 91.9204 200.766 91.9004 196.936C91.8804 193.106 114.96 189.876 143.46 189.716C171.96 189.556 195.08 192.526 195.1 196.356Z" fill="#CFE2F0"/>
</g>
<g style="mix-blend-mode:multiply" opacity="0.5">
<path d="M143.253 203.549C171.579 203.391 194.525 200.178 194.504 196.373C194.482 192.568 171.502 189.611 143.176 189.77C114.85 189.928 91.9039 193.141 91.9252 196.946C91.9465 200.751 114.927 203.708 143.253 203.549Z" fill="#CEE1EF"/>
</g>
<g style="mix-blend-mode:multiply" opacity="0.5">
<path d="M193.94 196.366C193.94 200.146 171.15 203.366 143 203.496C114.85 203.626 92 200.716 92 196.936C92 193.156 114.79 189.936 143 189.806C171.21 189.676 193.92 192.586 193.94 196.366Z" fill="#CEE1EF"/>
</g>
<g style="mix-blend-mode:multiply" opacity="0.5">
<path d="M142.713 203.462C170.697 203.306 193.365 200.135 193.344 196.379C193.323 192.624 170.621 189.706 142.637 189.863C114.653 190.019 91.9848 193.19 92.0058 196.945C92.0267 200.701 114.729 203.619 142.713 203.462Z" fill="#CDE0EF"/>
</g>
<g style="mix-blend-mode:multiply" opacity="0.5">
<path d="M142.443 203.434C170.261 203.278 192.795 200.126 192.774 196.393C192.753 192.659 170.185 189.759 142.367 189.914C114.549 190.069 92.015 193.222 92.0358 196.955C92.0567 200.689 114.625 203.589 142.443 203.434Z" fill="#CCE0EF"/>
</g>
<g style="mix-blend-mode:multiply" opacity="0.5">
<path d="M142.172 203.396C169.819 203.241 192.215 200.107 192.194 196.396C192.173 192.685 169.744 189.801 142.097 189.956C114.45 190.11 92.0549 193.244 92.0756 196.955C92.0963 200.667 114.525 203.55 142.172 203.396Z" fill="#CBDFEE"/>
</g>
<g style="mix-blend-mode:multiply" opacity="0.5">
<path d="M141.902 203.347C169.378 203.194 191.634 200.079 191.614 196.389C191.593 192.7 169.303 189.834 141.827 189.987C114.352 190.141 92.0948 193.256 92.1154 196.945C92.136 200.634 114.426 203.501 141.902 203.347Z" fill="#CADFEE"/>
</g>
<g style="mix-blend-mode:multiply" opacity="0.5">
<path d="M191.05 196.376C191.05 200.046 168.95 203.136 141.65 203.296C114.35 203.456 92.1899 200.596 92.1699 196.936C92.1499 193.276 114.27 190.176 141.57 190.016C168.87 189.856 191 192.716 191.05 196.376Z" fill="#C9DEEE"/>
</g>
<g style="mix-blend-mode:multiply" opacity="0.5">
<path d="M190.47 196.376C190.47 200.026 168.47 203.096 141.38 203.256C114.29 203.416 92.23 200.576 92.21 196.936C92.19 193.296 114.21 190.216 141.3 190.066C168.39 189.916 190.45 192.736 190.47 196.376Z" fill="#C8DEED"/>
</g>
<g style="mix-blend-mode:multiply" opacity="0.5">
<path d="M141.092 203.222C168.054 203.071 189.894 200.017 189.874 196.399C189.854 192.782 167.981 189.971 141.018 190.122C114.056 190.272 92.2156 193.327 92.2358 196.944C92.256 200.562 114.13 203.372 141.092 203.222Z" fill="#C7DDED"/>
</g>
<g style="mix-blend-mode:multiply" opacity="0.5">
<path d="M140.821 203.183C167.612 203.033 189.314 199.997 189.294 196.402C189.274 192.807 167.539 190.014 140.748 190.163C113.958 190.313 92.2555 193.349 92.2756 196.944C92.2957 200.539 114.03 203.333 140.821 203.183Z" fill="#C6DCED"/>
</g>
<g style="mix-blend-mode:multiply" opacity="0.5">
<path d="M188.73 196.386C188.73 199.966 167.19 202.986 140.57 203.136C113.95 203.286 92.3501 200.506 92.3301 196.936C92.3101 193.366 113.87 190.336 140.49 190.186C167.11 190.036 188.71 192.816 188.73 196.386Z" fill="#C6DCED"/>
</g>
<g style="mix-blend-mode:multiply" opacity="0.5">
<path d="M188.15 196.396C188.15 199.946 166.75 202.946 140.3 203.096C113.85 203.246 92.3901 200.486 92.3701 196.936C92.3501 193.386 113.77 190.386 140.22 190.236C166.67 190.086 188.13 192.846 188.15 196.396Z" fill="#C5DBEC"/>
</g>
<g style="mix-blend-mode:multiply" opacity="0.5">
<path d="M140.01 203.067C166.287 202.921 187.573 199.941 187.554 196.412C187.534 192.883 166.216 190.141 139.939 190.287C113.661 190.434 92.3754 193.414 92.3951 196.943C92.4148 200.472 113.733 203.214 140.01 203.067Z" fill="#C4DBEC"/>
</g>
<g style="mix-blend-mode:multiply" opacity="0.5">
<path d="M187 196.396C187 199.906 165.87 202.866 139.77 203.016C113.67 203.166 92.47 200.436 92.46 196.936C92.45 193.436 113.58 190.466 139.69 190.316C165.8 190.166 187 192.896 187 196.396Z" fill="#C3DAEC"/>
</g>
<g style="mix-blend-mode:multiply" opacity="0.5">
<path d="M186.42 196.406C186.42 199.886 165.42 202.826 139.49 202.976C113.56 203.126 92.4902 200.416 92.4902 196.976C92.4902 193.536 113.49 190.546 139.42 190.406C165.35 190.266 186.4 192.916 186.42 196.406Z" fill="#C2DAEB"/>
</g>
<g style="mix-blend-mode:multiply" opacity="0.5">
<path d="M140.669 201.755C166.439 201.497 187.301 198.485 187.266 195.028C187.232 191.571 166.313 188.977 140.544 189.235C114.774 189.492 93.9118 192.504 93.9464 195.961C93.981 199.418 114.899 202.012 140.669 201.755Z" fill="#C1D9EB"/>
</g>
<g style="mix-blend-mode:multiply" opacity="0.5">
<path d="M138.93 202.904C164.527 202.761 185.263 199.86 185.244 196.425C185.225 192.99 164.458 190.321 138.86 190.464C113.262 190.607 92.5263 193.507 92.5455 196.943C92.5647 200.378 113.332 203.047 138.93 202.904Z" fill="#C0D8EB"/>
</g>
<g style="mix-blend-mode:multiply" opacity="0.5">
<path d="M184.681 196.406C184.681 199.826 164.101 202.706 138.681 202.856C113.261 203.006 92.6206 200.346 92.6006 196.926C92.5806 193.506 113.181 190.636 138.601 190.486C164.021 190.336 184.661 193.016 184.681 196.406Z" fill="#BFD8EA"/>
</g>
<g style="mix-blend-mode:multiply" opacity="0.5">
<path d="M138.389 202.827C163.644 202.686 184.103 199.822 184.084 196.431C184.065 193.04 163.576 190.406 138.32 190.547C113.065 190.688 92.6062 193.551 92.6251 196.942C92.6441 200.333 113.133 202.968 138.389 202.827Z" fill="#BED7EA"/>
</g>
<g style="mix-blend-mode:multiply" opacity="0.5">
<path d="M183.52 196.416C183.52 199.786 163.22 202.626 138.14 202.776C113.06 202.926 92.6997 200.296 92.6797 196.926C92.6597 193.556 112.98 190.716 138.07 190.576C163.16 190.436 183.5 193.016 183.52 196.416Z" fill="#BDD7EA"/>
</g>
<g style="mix-blend-mode:multiply" opacity="0.5">
<path d="M137.849 202.75C162.762 202.611 182.943 199.785 182.924 196.438C182.906 193.091 162.694 190.491 137.781 190.63C112.868 190.769 92.687 193.595 92.7057 196.942C92.7244 200.289 112.936 202.889 137.849 202.75Z" fill="#BCD6E9"/>
</g>
<g style="mix-blend-mode:multiply" opacity="0.5">
<path d="M182.36 196.426C182.36 199.746 162.36 202.556 137.6 202.696C112.84 202.836 92.7798 200.246 92.7598 196.926C92.7398 193.606 112.76 190.796 137.53 190.666C162.3 190.536 182.34 193.106 182.36 196.426Z" fill="#BBD5E9"/>
</g>
<g style="mix-blend-mode:multiply" opacity="0.5">
<path d="M181.78 196.426C181.78 199.726 161.9 202.516 137.33 202.646C112.76 202.776 92.8198 200.226 92.7998 196.926C92.7798 193.626 112.68 190.846 137.26 190.706C161.84 190.566 181.77 193.126 181.78 196.426Z" fill="#BAD5E9"/>
</g>
<g style="mix-blend-mode:multiply" opacity="0.5">
<path d="M137.038 202.624C161.443 202.488 181.212 199.723 181.194 196.448C181.176 193.173 161.377 190.628 136.972 190.764C112.566 190.901 92.7971 193.666 92.8153 196.941C92.8336 200.216 112.633 202.761 137.038 202.624Z" fill="#B9D4E9"/>
</g>
<g style="mix-blend-mode:multiply" opacity="0.5">
<path d="M136.767 202.586C161.001 202.45 180.632 199.703 180.614 196.451C180.596 193.198 160.935 190.67 136.702 190.806C112.468 190.941 92.837 193.688 92.8552 196.941C92.8733 200.194 112.534 202.721 136.767 202.586Z" fill="#B8D4E8"/>
</g>
<g style="mix-blend-mode:multiply" opacity="0.5">
<path d="M180.05 196.436C180.05 199.666 160.58 202.436 136.51 202.526C112.44 202.616 92.9299 200.156 92.9199 196.926C92.9099 193.696 112.39 190.926 136.45 190.836C160.51 190.746 180 193.206 180.05 196.436Z" fill="#B7D3E8"/>
</g>
<g style="mix-blend-mode:multiply" opacity="0.5">
<path d="M179.47 196.436C179.47 199.646 160.14 202.356 136.24 202.486C112.34 202.616 93 200.136 93 196.926C93 193.716 112.34 191.006 136.23 190.876C160.12 190.746 179.45 193.236 179.47 196.436Z" fill="#B6D2E8"/>
</g>
<g style="mix-blend-mode:multiply" opacity="0.5">
<path d="M135.957 202.47C159.677 202.337 178.892 199.647 178.874 196.46C178.856 193.273 159.613 190.798 135.893 190.93C112.172 191.063 92.9578 193.753 92.9756 196.94C92.9934 200.126 112.237 202.602 135.957 202.47Z" fill="#B5D2E7"/>
</g>
<g style="mix-blend-mode:multiply" opacity="0.5">
<path d="M178.31 196.446C178.31 199.606 159.25 202.276 135.7 202.446C112.15 202.616 93.0503 200.126 93.0303 196.966C93.0103 193.806 112.09 191.136 135.64 190.966C159.19 190.796 178.29 193.286 178.31 196.446Z" fill="#B4D1E7"/>
</g>
<g style="mix-blend-mode:multiply" opacity="0.5">
<path d="M135.416 202.383C158.794 202.253 177.731 199.604 177.714 196.467C177.696 193.33 158.731 190.893 135.353 191.023C111.975 191.154 93.0376 193.803 93.0552 196.94C93.0727 200.077 112.038 202.514 135.416 202.383Z" fill="#B3D1E7"/>
</g>
<g style="mix-blend-mode:multiply" opacity="0.5">
<path d="M177.15 196.456C177.15 199.566 158.37 202.196 135.15 202.326C111.93 202.456 93.1497 200.046 93.0997 196.926C93.0497 193.806 111.88 191.176 135.1 191.046C158.32 190.916 177.14 193.336 177.15 196.456Z" fill="#B2D0E6"/>
</g>
<g style="mix-blend-mode:multiply" opacity="0.5">
<path d="M176.58 196.456C176.58 199.546 157.93 202.156 134.89 202.286C111.85 202.416 93.1704 200.016 93.1504 196.926C93.1304 193.836 111.79 191.216 134.83 191.086C157.87 190.956 176.56 193.366 176.58 196.456Z" fill="#B1CFE6"/>
</g>
<g style="mix-blend-mode:multiply" opacity="0.5">
<path d="M176 196.456C176 199.526 157.49 202.116 134.62 202.246C111.75 202.376 93.2104 199.996 93.1904 196.926C93.1704 193.856 111.7 191.266 134.56 191.136C157.42 191.006 176 193.386 176 196.456Z" fill="#B0CFE6"/>
</g>
<g style="mix-blend-mode:multiply" opacity="0.5">
<path d="M175.421 196.456C175.421 199.506 157.05 202.086 134.35 202.206C111.65 202.326 93.2505 199.976 93.2305 196.926C93.2105 193.876 111.6 191.306 134.29 191.176C156.98 191.046 175.401 193.416 175.421 196.456Z" fill="#AFCEE5"/>
</g>
<g style="mix-blend-mode:multiply" opacity="0.5">
<path d="M174.841 196.466C174.841 199.466 156.611 202.046 134.081 202.166C111.551 202.286 93.2905 199.946 93.2705 196.926C93.2505 193.906 111.501 191.346 134.021 191.216C156.541 191.086 174.821 193.436 174.841 196.466Z" fill="#AECDE5"/>
</g>
<g style="mix-blend-mode:multiply" opacity="0.5">
<path d="M174.261 196.466C174.261 199.466 156.171 202.006 133.811 202.126C111.451 202.246 93.3206 199.926 93.3106 196.926C93.3006 193.926 111.401 191.386 133.751 191.266C156.101 191.146 174.241 193.466 174.261 196.466Z" fill="#ADCDE5"/>
</g>
<g style="mix-blend-mode:multiply" opacity="0.5">
<path d="M133.525 202.104C155.71 201.98 173.681 199.466 173.665 196.49C173.648 193.513 155.65 191.2 133.465 191.324C111.28 191.448 93.3094 193.961 93.326 196.938C93.3426 199.915 111.341 202.228 133.525 202.104Z" fill="#ACCCE4"/>
</g>
<g style="mix-blend-mode:multiply" opacity="0.5">
<path d="M173.101 196.476C173.101 199.476 155.291 201.926 133.271 202.046C111.251 202.166 93.4006 199.876 93.3906 196.926C93.3806 193.976 111.201 191.476 133.211 191.346C155.221 191.216 173.091 193.516 173.101 196.476Z" fill="#ABCCE4"/>
</g>
<g style="mix-blend-mode:multiply" opacity="0.5">
<path d="M172.52 196.476C172.52 199.406 154.85 201.886 133 202.006C111.15 202.126 93.4399 199.856 93.4199 196.926C93.3999 193.996 111.1 191.516 132.94 191.386C154.78 191.256 172.51 193.546 172.52 196.476Z" fill="#AACBE4"/>
</g>
<g style="mix-blend-mode:multiply" opacity="0.5">
<path d="M172 196.476C172 199.386 154.46 201.846 132.78 201.966C111.1 202.086 93.5298 199.836 93.5098 196.966C93.4898 194.096 111.05 191.596 132.73 191.476C154.41 191.356 171.93 193.566 172 196.476Z" fill="#A9CAE3"/>
</g>
<g style="mix-blend-mode:multiply" opacity="0.5">
<path d="M132.444 201.95C153.944 201.83 171.36 199.391 171.344 196.503C171.328 193.614 153.886 191.37 132.385 191.49C110.885 191.61 93.4691 194.049 93.4853 196.937C93.5014 199.826 110.944 202.07 132.444 201.95Z" fill="#A8CAE3"/>
</g>
<g style="mix-blend-mode:multiply" opacity="0.5">
<path d="M170.79 196.486C170.79 199.346 153.53 201.766 132.19 201.886C110.85 202.006 93.5601 199.786 93.5401 196.886C93.5201 193.986 110.81 191.596 132.14 191.476C153.47 191.356 170.77 193.626 170.79 196.486Z" fill="#A7C9E3"/>
</g>
<g style="mix-blend-mode:multiply" opacity="0.5">
<path d="M170.21 196.486C170.21 199.326 153.08 201.726 131.92 201.846C110.76 201.966 93.6001 199.766 93.5801 196.926C93.5601 194.086 110.71 191.676 131.87 191.566C153.03 191.456 170.19 193.646 170.21 196.486Z" fill="#A6C8E2"/>
</g>
<g style="mix-blend-mode:multiply" opacity="0.5">
<path d="M169.63 196.496C169.63 199.306 152.63 201.686 131.63 201.806C110.63 201.926 93.6299 199.736 93.6299 196.916C93.6299 194.096 110.63 191.726 131.63 191.606C152.63 191.486 169.61 193.676 169.63 196.496Z" fill="#A4C8E2"/>
</g>
<g style="mix-blend-mode:multiply" opacity="0.5">
<path d="M169.05 196.496C169.05 199.286 152.2 201.656 131.38 201.766C110.56 201.876 93.6802 199.716 93.6602 196.916C93.6402 194.116 110.51 191.766 131.33 191.646C152.15 191.526 169 193.696 169.05 196.496Z" fill="#A3C7E2"/>
</g>
<g style="mix-blend-mode:multiply" opacity="0.5">
<path d="M168.47 196.496C168.47 199.266 151.76 201.616 131.11 201.726C110.46 201.836 93.7102 199.726 93.7002 196.916C93.6902 194.106 110.41 191.806 131.06 191.686C151.71 191.566 168.46 193.726 168.47 196.496Z" fill="#A2C6E1"/>
</g>
<g style="mix-blend-mode:multiply" opacity="0.5">
<path d="M167.89 196.506C167.89 199.246 151.32 201.576 130.84 201.686C110.36 201.796 93.7502 199.686 93.7402 196.916C93.7302 194.146 110.31 191.846 130.79 191.736C151.27 191.626 167.88 193.756 167.89 196.506Z" fill="#A1C6E1"/>
</g>
<g style="mix-blend-mode:multiply" opacity="0.5">
<path d="M130.563 201.67C150.87 201.557 167.32 199.253 167.305 196.525C167.289 193.797 150.815 191.677 130.508 191.79C110.201 191.904 93.7506 194.207 93.7659 196.936C93.7811 199.664 110.256 201.784 130.563 201.67Z" fill="#A0C5E0"/>
</g>
<g style="mix-blend-mode:multiply" opacity="0.5">
<path d="M166.74 196.506C166.74 199.206 150.44 201.506 130.3 201.606C110.16 201.706 93.8303 199.606 93.8203 196.916C93.8103 194.226 110.11 191.916 130.25 191.816C150.39 191.716 166.72 193.806 166.74 196.506Z" fill="#9FC4E0"/>
</g>
<g style="mix-blend-mode:multiply" opacity="0.5">
<path d="M166.16 196.506C166.16 199.196 150 201.456 130.03 201.566C110.06 201.676 93.8704 199.566 93.8604 196.916C93.8504 194.266 110 192.016 130 191.866C150 191.716 166.14 193.826 166.16 196.506Z" fill="#9EC4E0"/>
</g>
<g style="mix-blend-mode:multiply" opacity="0.5">
<path d="M165.581 196.516C165.581 199.176 149.581 201.416 129.761 201.516C109.941 201.616 93.9106 199.566 93.8906 196.906C93.8706 194.246 109.891 192.006 129.711 191.906C149.531 191.806 165.561 193.856 165.581 196.516Z" fill="#9DC3DF"/>
</g>
<g style="mix-blend-mode:multiply" opacity="0.5">
<path d="M165 196.516C165 199.156 149.12 201.376 129.49 201.516C109.86 201.656 93.9497 199.586 93.9297 196.946C93.9097 194.306 109.82 192.086 129.44 191.946C149.06 191.806 165 193.886 165 196.516Z" fill="#9CC2DF"/>
</g>
<g style="mix-blend-mode:multiply" opacity="0.5">
<path d="M129.212 201.458C148.663 201.349 164.419 199.144 164.405 196.531C164.39 193.919 148.61 191.889 129.159 191.998C109.708 192.107 93.9513 194.312 93.9659 196.925C93.9805 199.537 109.761 201.567 129.212 201.458Z" fill="#9AC2DF"/>
</g>
<g style="mix-blend-mode:multiply" opacity="0.5">
<path d="M163.84 196.526C163.84 199.116 148.24 201.296 128.95 201.406C109.66 201.516 94 199.506 94 196.916C94 194.326 109.61 192.146 128.89 192.036C148.17 191.926 163.83 193.936 163.84 196.526Z" fill="#99C1DE"/>
</g>
<g style="mix-blend-mode:multiply" opacity="0.5">
<path d="M163.26 196.526C163.26 199.096 147.8 201.256 128.68 201.366C109.56 201.476 94.0698 199.486 94.0498 196.916C94.0298 194.346 109.52 192.186 128.63 192.076C147.74 191.966 163.25 193.956 163.26 196.526Z" fill="#98C0DE"/>
</g>
<g style="mix-blend-mode:multiply" opacity="0.5">
<path d="M162.69 196.526C162.69 199.076 147.36 201.216 128.41 201.326C109.46 201.436 94.1099 199.456 94.0899 196.916C94.0699 194.376 109.42 192.226 128.36 192.116C147.3 192.006 162.67 194.016 162.69 196.526Z" fill="#97BFDE"/>
</g>
<g style="mix-blend-mode:multiply" opacity="0.5">
<path d="M128.13 201.304C146.902 201.199 162.108 199.073 162.094 196.554C162.08 194.036 146.851 192.079 128.079 192.184C109.307 192.289 94.1012 194.416 94.1153 196.934C94.1294 199.452 109.358 201.409 128.13 201.304Z" fill="#96BFDD"/>
</g>
<g style="mix-blend-mode:multiply" opacity="0.5">
<path d="M161.53 196.536C161.53 199.036 146.47 201.146 127.87 201.246C109.27 201.346 94.1799 199.416 94.1699 196.916C94.1599 194.416 109.22 192.306 127.82 192.206C146.42 192.106 161.51 194.016 161.53 196.536Z" fill="#95BEDD"/>
</g>
<g style="mix-blend-mode:multiply" opacity="0.5">
<path d="M161 196.536C161 199.016 146.08 201.106 127.65 201.206C109.22 201.306 94.2698 199.386 94.2598 196.916C94.2498 194.446 109.17 192.346 127.6 192.246C146.03 192.146 160.93 194.066 161 196.536Z" fill="#94BDDC"/>
</g>
<g style="mix-blend-mode:multiply" opacity="0.5">
<path d="M160.37 196.546C160.37 198.996 145.59 201.066 127.37 201.166C109.15 201.266 94.3 199.366 94.29 196.916C94.28 194.466 109.06 192.396 127.29 192.286C145.52 192.176 160.36 194.086 160.37 196.546Z" fill="#92BDDC"/>
</g>
<g style="mix-blend-mode:multiply" opacity="0.5">
<path d="M159.79 196.546C159.79 198.976 145.15 201.026 127.06 201.126C108.97 201.226 94.3 199.346 94.29 196.916C94.28 194.486 108.93 192.436 127.01 192.336C145.09 192.236 159.78 194.116 159.79 196.546Z" fill="#91BCDC"/>
</g>
<g style="mix-blend-mode:multiply" opacity="0.5">
<path d="M159.21 196.546C159.21 198.956 144.71 200.986 126.79 201.086C108.87 201.186 94.3401 199.316 94.3301 196.916C94.3201 194.516 108.83 192.476 126.74 192.376C144.65 192.276 159.2 194.146 159.21 196.546Z" fill="#90BBDB"/>
</g>
<g style="mix-blend-mode:multiply" opacity="0.5">
<path d="M158.63 196.556C158.63 198.936 144.27 200.946 126.52 201.046C108.77 201.146 94.3801 199.296 94.3701 196.916C94.3601 194.536 108.73 192.516 126.48 192.416C144.23 192.316 158.62 194.166 158.63 196.556Z" fill="#8FBADB"/>
</g>
<g style="mix-blend-mode:multiply" opacity="0.5">
<path d="M158.05 196.556C158.05 198.916 143.83 200.906 126.25 201.006C108.67 201.106 94.4204 199.276 94.4004 196.916C94.3804 194.556 108.63 192.556 126.21 192.466C143.79 192.376 158 194.196 158.05 196.556Z" fill="#8EBADB"/>
</g>
<g style="mix-blend-mode:multiply" opacity="0.5">
<path d="M157.48 196.556C157.48 198.896 143.39 200.866 125.98 200.966C108.57 201.066 94.4605 199.246 94.4405 196.916C94.4205 194.586 108.53 192.606 125.94 192.506C143.35 192.406 157.46 194.216 157.48 196.556Z" fill="#8DB9DA"/>
</g>
<g style="mix-blend-mode:multiply" opacity="0.5">
<path d="M156.9 196.556C156.9 198.876 142.95 200.826 125.71 200.926C108.47 201.026 94.5005 199.226 94.4805 196.926C94.4605 194.626 108.481 192.656 125.671 192.556C142.861 192.456 156.88 194.246 156.9 196.556Z" fill="#8BB8DA"/>
</g>
<g style="mix-blend-mode:multiply" opacity="0.5">
<path d="M156.321 196.566C156.321 198.856 142.511 200.786 125.441 200.886C108.371 200.986 94.5305 199.206 94.5205 196.886C94.5105 194.566 108.331 192.656 125.401 192.556C142.471 192.456 156.311 194.276 156.321 196.566Z" fill="#8AB8D9"/>
</g>
<g style="mix-blend-mode:multiply" opacity="0.5">
<path d="M125.158 200.861C142.052 200.766 155.737 198.85 155.724 196.58C155.712 194.31 142.006 192.546 125.112 192.641C108.218 192.735 94.5327 194.652 94.5454 196.921C94.5581 199.191 108.264 200.955 125.158 200.861Z" fill="#89B7D9"/>
</g>
<g style="mix-blend-mode:multiply" opacity="0.5">
<path d="M155.161 196.566C155.161 198.816 141.631 200.716 124.901 200.806C108.171 200.896 94.6106 199.156 94.6006 196.916C94.5906 194.676 108.131 192.766 124.861 192.676C141.591 192.586 155.151 194.326 155.161 196.566Z" fill="#88B6D9"/>
</g>
<g style="mix-blend-mode:multiply" opacity="0.5">
<path d="M124.618 200.784C141.17 200.691 154.577 198.816 154.565 196.596C154.553 194.376 141.125 192.651 124.573 192.744C108.021 192.836 94.6136 194.711 94.626 196.931C94.6384 199.151 108.066 200.876 124.618 200.784Z" fill="#87B5D8"/>
</g>
<g style="mix-blend-mode:multiply" opacity="0.5">
<path d="M154.001 196.576C154.001 198.776 140.751 200.636 124.361 200.726C107.971 200.816 94.6907 199.106 94.6807 196.906C94.6707 194.706 107.941 192.856 124.321 192.766C140.701 192.676 154.001 194.376 154.001 196.576Z" fill="#85B5D8"/>
</g>
<g style="mix-blend-mode:multiply" opacity="0.5">
<path d="M153.42 196.576C153.42 198.756 140.3 200.576 124.09 200.686C107.88 200.796 94.7297 199.086 94.7197 196.906C94.7097 194.726 107.84 192.906 124.05 192.806C140.26 192.706 153.41 194.406 153.42 196.576Z" fill="#84B4D8"/>
</g>
<g style="mix-blend-mode:multiply" opacity="0.5">
<path d="M152.85 196.586C152.85 198.736 139.85 200.586 123.85 200.646C107.85 200.706 94.8502 199.066 94.7902 196.906C94.7302 194.746 107.79 192.906 123.79 192.846C139.79 192.786 152.83 194.426 152.85 196.586Z" fill="#83B3D7"/>
</g>
<g style="mix-blend-mode:multiply" opacity="0.5">
<path d="M152.27 196.586C152.27 198.716 139.42 200.516 123.55 200.586C107.68 200.656 94.8098 199.016 94.7998 196.886C94.7898 194.756 107.64 192.956 123.51 192.886C139.38 192.816 152.26 194.456 152.27 196.586Z" fill="#82B2D7"/>
</g>
<g style="mix-blend-mode:multiply" opacity="0.5">
<path d="M151.69 196.586C151.69 198.696 138.98 200.476 123.28 200.586C107.58 200.696 94.8498 199.036 94.8398 196.926C94.8298 194.816 107.54 193.046 123.24 192.926C138.94 192.806 151.68 194.476 151.69 196.586Z" fill="#81B2D6"/>
</g>
<g style="mix-blend-mode:multiply" opacity="0.5">
<path d="M151.11 196.596C151.11 198.676 138.54 200.436 123.01 200.526C107.48 200.616 94.8901 198.996 94.8701 196.906C94.8501 194.816 107.44 193.066 122.97 192.976C138.5 192.886 151.1 194.506 151.11 196.596Z" fill="#7FB1D6"/>
</g>
<g style="mix-blend-mode:multiply" opacity="0.5">
<path d="M150.53 196.596C150.53 198.656 138.1 200.396 122.74 200.486C107.38 200.576 94.9302 198.966 94.9102 196.906C94.8902 194.846 107.34 193.106 122.7 193.016C138.06 192.926 150.52 194.536 150.53 196.596Z" fill="#7EB0D6"/>
</g>
<g style="mix-blend-mode:multiply" opacity="0.5">
<path d="M150 196.596C150 198.596 137.71 200.356 122.52 200.446C107.33 200.536 95 198.946 95 196.906C95 194.866 107.29 193.146 122.48 193.066C137.67 192.986 149.94 194.556 150 196.596Z" fill="#7DAFD5"/>
</g>
<g style="mix-blend-mode:multiply" opacity="0.5">
<path d="M149.37 196.606C149.37 198.606 137.22 200.316 122.2 200.406C107.18 200.496 95.0002 198.926 94.9902 196.906C94.9802 194.886 107.15 193.186 122.16 193.106C137.17 193.026 149.36 194.586 149.37 196.606Z" fill="#7CAFD5"/>
</g>
<g style="mix-blend-mode:multiply" opacity="0.5">
<path d="M148.79 196.606C148.79 198.606 136.79 200.276 121.93 200.366C107.07 200.456 95 198.896 95 196.906C95 194.916 107 193.226 121.86 193.146C136.72 193.066 148.78 194.606 148.79 196.606Z" fill="#7AAED4"/>
</g>
<g style="mix-blend-mode:multiply" opacity="0.5">
<path d="M121.646 200.34C136.32 200.258 148.206 198.593 148.195 196.622C148.184 194.65 136.28 193.118 121.606 193.2C106.932 193.282 95.0451 194.947 95.0561 196.919C95.0671 198.89 106.972 200.422 121.646 200.34Z" fill="#79ADD4"/>
</g>
<g style="mix-blend-mode:multiply" opacity="0.5">
<path d="M147.64 196.606C147.64 198.606 135.9 200.206 121.39 200.286C106.88 200.366 95.1204 198.856 95.1104 196.906C95.1004 194.956 106.85 193.316 121.35 193.236C135.85 193.156 147.63 194.666 147.64 196.606Z" fill="#78ACD4"/>
</g>
<g style="mix-blend-mode:multiply" opacity="0.5">
<path d="M147.06 196.616C147.06 198.536 135.46 200.166 121.12 200.246C106.78 200.326 95.1201 198.826 95.1201 196.906C95.1201 194.986 106.72 193.356 121.05 193.276C135.38 193.196 147.05 194.686 147.06 196.616Z" fill="#77ACD3"/>
</g>
<g style="mix-blend-mode:multiply" opacity="0.5">
<path d="M120.835 200.224C135 200.145 146.476 198.541 146.465 196.641C146.454 194.741 134.962 193.265 120.796 193.345C106.63 193.424 95.1551 195.028 95.1657 196.928C95.1763 198.828 106.669 200.304 120.835 200.224Z" fill="#75ABD3"/>
</g>
<g style="mix-blend-mode:multiply" opacity="0.5">
<path d="M145.9 196.616C145.9 198.496 134.58 200.086 120.58 200.166C106.58 200.246 95.2405 198.786 95.2305 196.906C95.2205 195.026 106.55 193.436 120.54 193.366C134.53 193.296 145.89 194.746 145.9 196.616Z" fill="#74AAD2"/>
</g>
<g style="mix-blend-mode:multiply" opacity="0.5">
<path d="M145.32 196.626C145.32 198.476 134.14 200.046 120.32 200.126C106.5 200.206 95.3203 198.756 95.3203 196.906C95.3203 195.056 106.5 193.486 120.32 193.406C134.14 193.326 145.31 194.766 145.32 196.626Z" fill="#73A9D2"/>
</g>
<g style="mix-blend-mode:multiply" opacity="0.5">
<path d="M144.741 196.626C144.741 198.456 133.691 200.006 120.041 200.086C106.391 200.166 95.3206 198.736 95.3106 196.906C95.3006 195.076 106.311 193.526 120.011 193.446C133.711 193.366 144.731 194.796 144.741 196.626Z" fill="#72A8D2"/>
</g>
<g style="mix-blend-mode:multiply" opacity="0.5">
<path d="M144.16 196.626C144.16 198.436 133.25 199.966 119.77 200.046C106.29 200.126 95.3599 198.716 95.3399 196.906C95.3199 195.096 106.25 193.566 119.74 193.486C133.23 193.406 144.15 194.816 144.16 196.626Z" fill="#70A8D1"/>
</g>
<g style="mix-blend-mode:multiply" opacity="0.5">
<path d="M143.59 196.636C143.59 198.416 132.81 199.926 119.5 200.006C106.19 200.086 95.3899 198.696 95.3799 196.906C95.3699 195.116 106.16 193.606 119.47 193.536C132.78 193.466 143.58 194.846 143.59 196.636Z" fill="#6FA7D1"/>
</g>
<g style="mix-blend-mode:multiply" opacity="0.5">
<path d="M119.224 199.974C132.362 199.9 143.005 198.413 142.996 196.651C142.986 194.889 132.327 193.52 119.188 193.594C106.049 193.667 95.4064 195.155 95.4163 196.917C95.4261 198.678 106.085 200.047 119.224 199.974Z" fill="#6EA6D0"/>
</g>
<g style="mix-blend-mode:multiply" opacity="0.5">
<path d="M142.43 196.636C142.43 198.376 131.93 199.846 118.96 199.926C105.99 200.006 95.47 198.646 95.46 196.926C95.45 195.206 105.96 193.716 118.93 193.636C131.9 193.556 142.42 194.896 142.43 196.636Z" fill="#6CA5D0"/>
</g>
<g style="mix-blend-mode:multiply" opacity="0.5">
<path d="M141.85 196.646C141.85 198.356 131.49 199.816 118.69 199.886C105.89 199.956 95.51 198.626 95.5 196.886C95.49 195.146 105.86 193.716 118.66 193.646C131.46 193.576 141.84 194.926 141.85 196.646Z" fill="#6BA5CF"/>
</g>
<g style="mix-blend-mode:multiply" opacity="0.5">
<path d="M141.27 196.646C141.27 198.336 131.05 199.776 118.42 199.846C105.79 199.916 95.55 198.596 95.54 196.906C95.53 195.216 105.76 193.776 118.39 193.706C131.02 193.636 141.26 194.946 141.27 196.646Z" fill="#6AA4CF"/>
</g>
<g style="mix-blend-mode:multiply" opacity="0.5">
<path d="M140.69 196.646C140.69 198.316 130.61 199.736 118.15 199.806C105.69 199.876 95.5901 198.576 95.5801 196.906C95.5701 195.236 105.66 193.816 118.12 193.746C130.58 193.676 140.68 195.016 140.69 196.646Z" fill="#68A3CF"/>
</g>
<g style="mix-blend-mode:multiply" opacity="0.5">
<path d="M140.11 196.646C140.11 198.296 130.17 199.696 117.88 199.766C105.59 199.836 95.6301 198.556 95.6201 196.906C95.6101 195.256 105.56 193.856 117.85 193.786C130.14 193.716 140.1 195.016 140.11 196.646Z" fill="#67A2CE"/>
</g>
<g style="mix-blend-mode:multiply" opacity="0.5">
<path d="M139.531 196.656C139.531 198.276 129.731 199.656 117.611 199.726C105.491 199.796 95.6706 198.526 95.6106 196.906C95.5506 195.286 105.411 193.906 117.531 193.836C129.651 193.766 139.521 195.016 139.531 196.656Z" fill="#66A1CE"/>
</g>
<g style="mix-blend-mode:multiply" opacity="0.5">
<path d="M139 196.656C139 198.256 129.33 199.656 117.38 199.656C105.43 199.656 95.7502 198.476 95.7402 196.876C95.7302 195.276 105.4 193.876 117.35 193.876C129.3 193.876 139 195.016 139 196.656Z" fill="#65A1CD"/>
</g>
<g style="mix-blend-mode:multiply" opacity="0.5">
<path d="M138.38 196.656C138.38 198.236 128.85 199.576 117.07 199.656C105.29 199.736 95.7502 198.496 95.7402 196.906C95.7302 195.316 105.27 193.996 117.04 193.906C128.81 193.816 138.37 195.076 138.38 196.656Z" fill="#63A0CD"/>
</g>
<g style="mix-blend-mode:multiply" opacity="0.5">
<path d="M137.8 196.666C137.8 198.226 128.41 199.536 116.8 199.606C105.19 199.676 95.7998 198.456 95.7998 196.896C95.7998 195.336 105.19 194.026 116.8 193.966C128.41 193.906 137.79 195.106 137.8 196.666Z" fill="#629FCC"/>
</g>
<g style="mix-blend-mode:multiply" opacity="0.5">
<path d="M137.22 196.666C137.22 198.206 127.97 199.496 116.53 199.566C105.09 199.636 95.8203 198.436 95.8203 196.896C95.8203 195.356 105.07 194.066 116.5 194.006C127.93 193.946 137.21 195.136 137.22 196.666Z" fill="#619ECC"/>
</g>
<g style="mix-blend-mode:multiply" opacity="0.5">
<path d="M116.251 199.54C127.512 199.477 136.634 198.199 136.626 196.686C136.617 195.173 127.482 193.997 116.221 194.06C104.96 194.123 95.8379 195.401 95.8464 196.914C95.8548 198.427 104.99 199.603 116.251 199.54Z" fill="#5F9DCC"/>
</g>
<g style="mix-blend-mode:multiply" opacity="0.5">
<path d="M136.061 196.676C136.061 198.166 127.061 199.416 115.991 199.486C104.921 199.556 95.9006 198.386 95.8906 196.896C95.8806 195.406 104.891 194.156 115.961 194.086C127.031 194.016 136.051 195.186 136.061 196.676Z" fill="#5E9CCB"/>
</g>
<g style="mix-blend-mode:multiply" opacity="0.5">
<path d="M135.48 196.676C135.48 198.146 126.64 199.376 115.72 199.446C104.8 199.516 95.9397 198.366 95.9297 196.896C95.9197 195.426 104.77 194.196 115.69 194.136C126.61 194.076 135.47 195.206 135.48 196.676Z" fill="#5D9CCB"/>
</g>
<g style="mix-blend-mode:multiply" opacity="0.5">
<path d="M134.9 196.676C134.9 198.126 126.2 199.346 115.45 199.406C104.7 199.466 96 198.346 96 196.896C96 195.446 104.7 194.236 115.45 194.176C126.2 194.116 134.9 195.236 134.9 196.676Z" fill="#5B9BCA"/>
</g>
<g style="mix-blend-mode:multiply" opacity="0.5">
<path d="M134.33 196.686C134.33 198.106 125.76 199.306 115.18 199.366C104.6 199.426 96 198.316 96 196.896C96 195.476 104.56 194.276 115.14 194.216C125.72 194.156 134.32 195.266 134.33 196.686Z" fill="#5A9ACA"/>
</g>
<g style="mix-blend-mode:multiply" opacity="0.5">
<path d="M133.75 196.686C133.75 198.086 125.32 199.266 114.91 199.326C104.5 199.386 96.0598 198.326 96.0498 196.896C96.0398 195.466 104.47 194.316 114.88 194.266C125.29 194.216 133.74 195.286 133.75 196.686Z" fill="#5899C9"/>
</g>
<g style="mix-blend-mode:multiply" opacity="0.5">
<path d="M133.17 196.686C133.17 198.066 124.88 199.226 114.64 199.286C104.4 199.346 96.0999 198.286 96.0899 196.896C96.0799 195.506 104.38 194.366 114.61 194.306C124.84 194.246 133.16 195.316 133.17 196.686Z" fill="#5798C9"/>
</g>
<g style="mix-blend-mode:multiply" opacity="0.5">
<path d="M114.36 199.261C124.428 199.204 132.583 198.062 132.576 196.709C132.568 195.356 124.4 194.304 114.332 194.361C104.264 194.417 96.1087 195.559 96.1162 196.912C96.1238 198.265 104.292 199.317 114.36 199.261Z" fill="#5697C9"/>
</g>
<g style="mix-blend-mode:multiply" opacity="0.5">
<path d="M132 196.696C132 198.026 124 199.146 114.09 199.206C104.18 199.266 96.1702 198.206 96.1602 196.896C96.1502 195.586 104.16 194.446 114.07 194.386C123.98 194.326 132 195.366 132 196.696Z" fill="#5497C8"/>
</g>
<g style="mix-blend-mode:multiply" opacity="0.5">
<path d="M131.43 196.696C131.43 198.006 123.56 199.106 113.83 199.166C104.1 199.226 96.21 198.166 96.21 196.896C96.21 195.626 104.08 194.486 113.81 194.436C123.54 194.386 131.42 195.396 131.43 196.696Z" fill="#5396C8"/>
</g>
<g style="mix-blend-mode:multiply" opacity="0.5">
<path d="M130.85 196.696C130.85 197.986 123.12 199.066 113.56 199.126C104 199.186 96.25 198.176 96.25 196.896C96.25 195.616 103.98 194.526 113.54 194.476C123.1 194.426 130.85 195.416 130.85 196.696Z" fill="#5295C7"/>
</g>
<g style="mix-blend-mode:multiply" opacity="0.5">
<path d="M130.27 196.706C130.27 197.966 122.681 199.026 113.271 199.086C103.861 199.146 96.2705 198.156 96.2705 196.896C96.2705 195.636 103.861 194.576 113.271 194.516C122.681 194.456 130.27 195.446 130.27 196.706Z" fill="#5094C7"/>
</g>
<g style="mix-blend-mode:multiply" opacity="0.5">
<path d="M129.69 196.706C129.69 197.946 122.24 198.986 113.02 199.046C103.8 199.106 96.3303 198.136 96.3203 196.896C96.3103 195.656 103.78 194.616 113 194.566C122.22 194.516 129.69 195.466 129.69 196.706Z" fill="#4F93C6"/>
</g>
<g style="mix-blend-mode:multiply" opacity="0.5">
<path d="M129.12 196.706C129.12 197.926 121.8 198.946 112.75 198.996C103.7 199.046 96.3704 198.106 96.3604 196.896C96.3504 195.686 103.68 194.656 112.73 194.606C121.78 194.556 129.11 195.496 129.12 196.706Z" fill="#4E92C6"/>
</g>
<g style="mix-blend-mode:multiply" opacity="0.5">
<path d="M128.54 196.716C128.54 197.906 121.36 198.906 112.48 198.956C103.6 199.006 96.4104 198.086 96.4004 196.896C96.3904 195.706 103.58 194.696 112.46 194.646C121.34 194.596 128.53 195.526 128.54 196.716Z" fill="#4C92C5"/>
</g>
<g style="mix-blend-mode:multiply" opacity="0.5">
<path d="M128 196.716C128 197.886 121 198.876 112.25 198.916C103.5 198.956 96.4905 198.066 96.4805 196.916C96.4705 195.766 103.53 194.756 112.23 194.706C120.93 194.656 128 195.546 128 196.716Z" fill="#4B91C5"/>
</g>
<g style="mix-blend-mode:multiply" opacity="0.5">
<path d="M127.38 196.716C127.38 197.866 120.47 198.836 111.94 198.876C103.41 198.916 96.4905 198.036 96.4805 196.876C96.4705 195.716 103.39 194.756 111.92 194.716C120.45 194.676 127.37 195.576 127.38 196.716Z" fill="#4990C5"/>
</g>
<g style="mix-blend-mode:multiply" opacity="0.5">
<path d="M126.801 196.726C126.801 197.846 120.031 198.796 111.671 198.836C103.311 198.876 96.5305 198.016 96.5205 196.896C96.5105 195.776 103.291 194.826 111.651 194.776C120.011 194.726 126.791 195.596 126.801 196.726Z" fill="#488FC4"/>
</g>
<g style="mix-blend-mode:multiply" opacity="0.5">
<path d="M111.387 198.807C119.577 198.762 126.212 197.834 126.206 196.734C126.2 195.635 119.555 194.782 111.365 194.827C103.175 194.873 96.5401 195.801 96.5463 196.9C96.5524 197.999 103.197 198.853 111.387 198.807Z" fill="#478EC4"/>
</g>
<g style="mix-blend-mode:multiply" opacity="0.5">
<path d="M125.641 196.726C125.641 197.806 119.151 198.726 111.131 198.726C103.111 198.726 96.6006 197.936 96.6006 196.866C96.6006 195.796 103.091 194.866 111.111 194.866C119.131 194.866 125.641 195.656 125.641 196.726Z" fill="#458DC3"/>
</g>
<g style="mix-blend-mode:multiply" opacity="0.5">
<path d="M125.061 196.736C125.061 197.736 118.711 198.676 110.861 198.736C103.011 198.796 96.6406 197.966 96.6406 196.916C96.6406 195.866 102.991 194.966 110.841 194.916C118.691 194.866 125.061 195.676 125.061 196.736Z" fill="#448CC3"/>
</g>
<g style="mix-blend-mode:multiply" opacity="0.5">
<path d="M124.491 196.736C124.491 197.736 118.271 198.636 110.591 198.676C102.911 198.716 96.6807 197.926 96.6807 196.896C96.6807 195.866 102.891 194.986 110.571 194.946C118.251 194.906 124.481 195.706 124.491 196.736Z" fill="#428CC2"/>
</g>
<g style="mix-blend-mode:multiply" opacity="0.5">
<path d="M123.91 196.736C123.91 197.736 117.83 198.596 110.32 198.636C102.81 198.676 96.7197 197.896 96.7197 196.896C96.7197 195.896 102.79 195.016 110.3 195.016C117.81 195.016 123.9 195.726 123.91 196.736Z" fill="#418BC2"/>
</g>
<g style="mix-blend-mode:multiply" opacity="0.5">
<path d="M123.33 196.746C123.33 197.746 117.39 198.556 110.05 198.596C102.71 198.636 96.7598 197.876 96.7598 196.896C96.7598 195.916 102.69 195.076 110.03 195.036C117.37 194.996 123.32 195.756 123.33 196.746Z" fill="#3F8AC1"/>
</g>
<g style="mix-blend-mode:multiply" opacity="0.5">
<path d="M122.75 196.746C122.75 197.746 116.95 198.516 109.75 198.556C102.55 198.596 96.75 197.856 96.75 196.886C96.75 195.916 102.56 195.116 109.75 195.076C116.94 195.036 122.74 195.786 122.75 196.746Z" fill="#3E89C1"/>
</g>
<g style="mix-blend-mode:multiply" opacity="0.5">
<path d="M122.17 196.746C122.17 197.686 116.51 198.476 109.51 198.516C102.51 198.556 96.8401 197.826 96.8301 196.886C96.8201 195.946 102.5 195.156 109.49 195.116C116.48 195.076 122.17 195.806 122.17 196.746Z" fill="#3D88C0"/>
</g>
<g style="mix-blend-mode:multiply" opacity="0.5">
<path d="M121.59 196.746C121.59 197.666 116.07 198.446 109.24 198.476C102.41 198.506 96.8801 197.806 96.8701 196.886C96.8601 195.966 102.4 195.196 109.22 195.166C116.04 195.136 121.59 195.836 121.59 196.746Z" fill="#3B87C0"/>
</g>
<g style="mix-blend-mode:multiply" opacity="0.5">
<path d="M108.956 198.461C115.611 198.424 121.001 197.668 120.996 196.773C120.991 195.879 115.592 195.184 108.938 195.221C102.283 195.258 96.8917 196.013 96.8967 196.908C96.9017 197.803 102.301 198.498 108.956 198.461Z" fill="#3A86C0"/>
</g>
<g style="mix-blend-mode:multiply" opacity="0.5">
<path d="M120.43 196.756C120.43 197.626 115.19 198.366 108.7 198.396C102.21 198.426 97 197.756 97 196.886C97 196.016 102.25 195.286 108.73 195.246C115.21 195.206 120.43 195.886 120.43 196.756Z" fill="#3885BF"/>
</g>
<g style="mix-blend-mode:multiply" opacity="0.5">
<path d="M108.415 198.364C114.727 198.329 119.841 197.615 119.836 196.77C119.831 195.925 114.71 195.269 108.398 195.304C102.085 195.339 96.9716 196.053 96.9763 196.898C96.981 197.743 102.102 198.399 108.415 198.364Z" fill="#3784BF"/>
</g>
<g style="mix-blend-mode:multiply" opacity="0.5">
<path d="M108.144 198.326C114.286 198.291 119.26 197.596 119.256 196.773C119.251 195.951 114.269 195.311 108.128 195.346C101.986 195.38 97.0115 196.075 97.0161 196.898C97.0207 197.721 102.003 198.36 108.144 198.326Z" fill="#3584BE"/>
</g>
<g style="mix-blend-mode:multiply" opacity="0.5">
<path d="M118.7 196.766C118.7 197.566 113.86 198.246 107.89 198.276C101.92 198.306 97.0703 197.686 97.0703 196.886C97.0703 196.086 101.9 195.406 107.88 195.376C113.86 195.346 118.69 196.016 118.7 196.766Z" fill="#3483BE"/>
</g>
<g style="mix-blend-mode:multiply" opacity="0.5">
<path d="M118.12 196.766C118.12 197.546 113.42 198.206 107.62 198.236C101.82 198.266 97.1104 197.666 97.1104 196.886C97.1104 196.106 101.8 195.446 107.61 195.416C113.42 195.386 118.11 196.016 118.12 196.766Z" fill="#3282BD"/>
</g>
<g style="mix-blend-mode:multiply" opacity="0.5">
<path d="M117.54 196.776C117.54 197.526 112.98 198.166 107.35 198.196C101.72 198.226 97.1504 197.646 97.1504 196.886C97.1504 196.126 101.7 195.496 107.34 195.456C112.98 195.416 117.54 196.016 117.54 196.776Z" fill="#3181BD"/>
</g>
<g style="mix-blend-mode:multiply" opacity="0.5">
<path d="M117 196.776C117 197.506 112.58 198.126 107.12 198.156C101.66 198.186 97.2305 197.616 97.2305 196.886C97.2305 196.156 101.65 195.536 107.11 195.506C112.57 195.476 117 196.016 117 196.776Z" fill="#2F80BC"/>
</g>
<g style="mix-blend-mode:multiply" opacity="0.5">
<path d="M116.38 196.776C116.38 197.486 112.1 198.086 106.81 198.116C101.52 198.146 97.2305 197.596 97.2305 196.886C97.2305 196.176 101.51 195.576 106.8 195.546C112.09 195.516 116.38 196.066 116.38 196.776Z" fill="#2E7FBC"/>
</g>
<g style="mix-blend-mode:multiply" opacity="0.5">
<path d="M115.801 196.786C115.801 197.466 111.66 198.046 106.54 198.076C101.42 198.106 97.2705 197.576 97.2705 196.886C97.2705 196.196 101.411 195.616 106.531 195.586C111.651 195.556 115.801 196.096 115.801 196.786Z" fill="#2C7EBB"/>
</g>
<g style="mix-blend-mode:multiply" opacity="0.5">
<path d="M115.23 196.786C115.23 197.446 111.23 198.006 106.23 198.036C101.23 198.066 97.2305 197.546 97.2305 196.886C97.2305 196.226 101.23 195.656 106.23 195.636C111.23 195.616 115.22 196.116 115.23 196.786Z" fill="#2B7DBB"/>
</g>
<g style="mix-blend-mode:multiply" opacity="0.5">
<path d="M105.993 198.008C110.77 197.981 114.64 197.44 114.636 196.799C114.633 196.159 110.757 195.661 105.98 195.688C101.203 195.714 97.333 196.255 97.3366 196.896C97.3401 197.536 101.216 198.034 105.993 198.008Z" fill="#2A7CBA"/>
</g>
<g style="mix-blend-mode:multiply" opacity="0.5">
<path d="M114.07 196.796C114.07 197.406 110.34 197.936 105.73 197.956C101.12 197.976 97.3899 197.506 97.3799 196.886C97.3699 196.266 101.11 195.746 105.72 195.716C110.33 195.686 114.06 196.176 114.07 196.796Z" fill="#287BBA"/>
</g>
<g style="mix-blend-mode:multiply" opacity="0.5">
<path d="M113.49 196.796C113.49 197.386 109.9 197.896 105.49 197.916C101.08 197.936 97.4902 197.476 97.4902 196.916C97.4902 196.356 101.08 195.816 105.49 195.786C109.9 195.756 113.49 196.196 113.49 196.796Z" fill="#277BB9"/>
</g>
<g style="mix-blend-mode:multiply" opacity="0.5">
<path d="M112.91 196.796C112.91 197.366 109.46 197.856 105.19 197.876C100.92 197.896 97.46 197.456 97.46 196.876C97.46 196.296 100.91 195.816 105.18 195.796C109.45 195.776 112.91 196.226 112.91 196.796Z" fill="#257AB9"/>
</g>
<g style="mix-blend-mode:multiply" opacity="0.5">
<path d="M112.33 196.796C112.33 197.346 109.02 197.796 104.92 197.796C100.82 197.796 97.5 197.396 97.5 196.846C97.5 196.296 100.81 195.846 104.91 195.846C109.01 195.846 112.33 196.246 112.33 196.796Z" fill="#2479B8"/>
</g>
<g style="mix-blend-mode:multiply" opacity="0.5">
<path d="M111.75 196.806C111.75 197.326 108.58 197.806 104.65 197.806C100.72 197.806 97.54 197.416 97.54 196.896C97.54 196.376 100.72 195.896 104.64 195.896C108.56 195.896 111.75 196.276 111.75 196.806Z" fill="#2278B8"/>
</g>
<g style="mix-blend-mode:multiply" opacity="0.5">
<path d="M111.17 196.806C111.17 197.306 108.17 197.736 104.38 197.756C100.59 197.776 97.5801 197.386 97.5801 196.886C97.5801 196.386 100.58 195.956 104.37 195.936C108.16 195.916 111.17 196.306 111.17 196.806Z" fill="#2177B7"/>
</g>
<g style="mix-blend-mode:multiply" opacity="0.5">
<path d="M110.6 196.806C110.6 197.286 107.69 197.696 104.11 197.716C100.53 197.736 97.6201 197.366 97.6201 196.886C97.6201 196.406 100.52 195.996 104.1 195.976C107.68 195.956 110.59 196.326 110.6 196.806Z" fill="#1F76B7"/>
</g>
<g style="mix-blend-mode:multiply" opacity="0.5">
<path d="M110.001 196.816C110.001 197.276 107.231 197.656 103.821 197.676C100.411 197.696 97.6406 197.336 97.6406 196.886C97.6406 196.436 100.401 196.036 103.811 196.016C107.221 195.996 110.001 196.356 110.001 196.816Z" fill="#1E75B6"/>
</g>
<g style="mix-blend-mode:multiply" opacity="0.5">
<path d="M109.44 196.816C109.44 197.256 106.81 197.616 103.57 197.636C100.33 197.656 97.7002 197.316 97.7002 196.886C97.7002 196.456 100.32 196.076 103.56 196.056C106.8 196.036 109.44 196.376 109.44 196.816Z" fill="#1C74B6"/>
</g>
<g style="mix-blend-mode:multiply" opacity="0.5">
<path d="M108.86 196.816C108.86 197.236 106.37 197.576 103.3 197.596C100.23 197.616 97.7402 197.296 97.7402 196.886C97.7402 196.476 100.22 196.126 103.29 196.106C106.36 196.086 108.86 196.406 108.86 196.816Z" fill="#1A73B6"/>
</g>
<g style="mix-blend-mode:multiply" opacity="0.5">
<path d="M108.281 196.826C108.281 197.216 105.931 197.536 103.031 197.556C100.131 197.576 97.7805 197.266 97.7705 196.886C97.7605 196.506 100.121 196.166 103.021 196.146C105.921 196.126 108.281 196.436 108.281 196.826Z" fill="#1972B5"/>
</g>
<g style="mix-blend-mode:multiply" opacity="0.5">
<path d="M107.701 196.826C107.701 197.196 105.491 197.506 102.761 197.516C100.031 197.526 97.8206 197.246 97.8106 196.886C97.8006 196.526 100.021 196.206 102.751 196.186C105.481 196.166 107.701 196.456 107.701 196.826Z" fill="#1771B5"/>
</g>
<g style="mix-blend-mode:multiply" opacity="0.5">
<path d="M107.121 196.826C107.121 197.176 105.051 197.466 102.491 197.476C99.9306 197.486 97.8506 197.226 97.8506 196.876C97.8506 196.526 99.9206 196.246 102.481 196.236C105.041 196.226 107.121 196.486 107.121 196.826Z" fill="#1670B4"/>
</g>
<g style="mix-blend-mode:multiply" opacity="0.5">
<path d="M106.541 196.836C106.541 197.156 104.611 197.426 102.221 197.436C99.8306 197.446 97.8906 197.206 97.8906 196.876C97.8906 196.546 99.8306 196.286 102.211 196.276C104.591 196.266 106.541 196.506 106.541 196.836Z" fill="#146FB4"/>
</g>
<g style="mix-blend-mode:multiply" opacity="0.5">
<path d="M106 196.836C106 197.136 104.21 197.386 102 197.396C99.79 197.406 98 197.176 98 196.876C98 196.576 99.8 196.326 102 196.316C104.2 196.306 106 196.536 106 196.836Z" fill="#136EB3"/>
</g>
<g style="mix-blend-mode:multiply" opacity="0.5">
<path d="M105.39 196.836C105.39 197.116 103.73 197.346 101.68 197.356C99.6297 197.366 97.9697 197.156 97.9697 196.876C97.9697 196.596 99.6297 196.376 101.68 196.356C103.73 196.336 105.38 196.566 105.39 196.836Z" fill="#116EB3"/>
</g>
<g style="mix-blend-mode:multiply" opacity="0.5">
<path d="M104.81 196.836C104.81 197.096 103.29 197.306 101.41 197.316C99.5298 197.326 98.0098 197.136 98.0098 196.876C98.0098 196.616 99.5298 196.416 101.41 196.406C103.29 196.396 104.81 196.586 104.81 196.836Z" fill="#106DB2"/>
</g>
<g style="mix-blend-mode:multiply" opacity="0.5">
<path d="M104.23 196.846C104.23 197.076 102.85 197.266 101.14 197.276C99.4298 197.286 98.0498 197.106 98.0498 196.876C98.0498 196.646 99.4298 196.456 101.14 196.446C102.85 196.436 104.23 196.616 104.23 196.846Z" fill="#0E6CB2"/>
</g>
<g style="mix-blend-mode:multiply" opacity="0.5">
<path d="M103.65 196.846C103.65 197.056 102.41 197.226 100.87 197.236C99.3298 197.246 98.0898 197.086 98.0898 196.876C98.0898 196.666 99.3298 196.496 100.87 196.486C102.41 196.476 103.65 196.636 103.65 196.846Z" fill="#0D6BB1"/>
</g>
<g style="mix-blend-mode:multiply" opacity="0.5">
<path d="M103.07 196.846C103.07 197.036 101.97 197.186 100.6 197.196C99.2299 197.206 98.1299 197.066 98.1299 196.876C98.1299 196.686 99.2299 196.536 100.6 196.536C101.97 196.536 103.07 196.666 103.07 196.846Z" fill="#0B6AB1"/>
</g>
<g style="mix-blend-mode:multiply" opacity="0.5">
<path d="M102.49 196.856C102.49 197.016 101.49 197.146 100.33 197.156C99.1699 197.166 98.1699 197.036 98.1699 196.876C98.1699 196.716 99.1699 196.586 100.33 196.576C101.49 196.566 102.49 196.696 102.49 196.856Z" fill="#0969B0"/>
</g>
<g style="mix-blend-mode:multiply" opacity="0.5">
<path d="M101.91 196.856C101.91 196.996 101.08 197.106 100.06 197.116C99.04 197.126 98.21 197.016 98.21 196.876C98.21 196.736 99.03 196.626 100.06 196.616C101.09 196.606 101.91 196.716 101.91 196.856Z" fill="#0868B0"/>
</g>
<g style="mix-blend-mode:multiply" opacity="0.5">
<path d="M101.33 196.856C101.33 196.976 100.64 197.066 99.7902 197.076C98.9402 197.086 98.2502 196.996 98.2402 196.876C98.7308 196.676 99.2633 196.6 99.7902 196.656C100.64 196.656 101.33 196.746 101.33 196.856Z" fill="#0667AF"/>
</g>
<g style="mix-blend-mode:multiply" opacity="0.5">
<path d="M100.76 196.866C100.76 196.956 100.2 197.036 99.5203 197.036C98.8403 197.036 98.2803 196.966 98.2803 196.876C98.2803 196.786 98.8403 196.706 99.5203 196.706C100.2 196.706 100.76 196.776 100.76 196.866Z" fill="#0566AF"/>
</g>
<g style="mix-blend-mode:multiply" opacity="0.5">
<path d="M100.18 196.866C100.18 196.936 99.7603 196.996 99.2503 196.996C98.7403 196.996 98.3203 196.946 98.3203 196.876C98.3203 196.806 98.7403 196.746 99.2503 196.746C99.7603 196.746 100.18 196.796 100.18 196.866Z" fill="#0365AE"/>
</g>
<g style="mix-blend-mode:multiply" opacity="0.5">
<path d="M99.6004 196.866C99.6004 196.866 99.3203 196.956 98.9803 196.956C98.6403 196.956 98.3604 196.956 98.3604 196.876C98.3604 196.796 98.6403 196.796 98.9803 196.786C99.1904 196.763 99.4029 196.791 99.6004 196.866Z" fill="#0264AE"/>
</g>
<g style="mix-blend-mode:multiply" opacity="0.5">
<path d="M99 196.876C99.3076 196.915 99.5887 197.07 99.786 197.31C99.9834 197.549 100.082 197.854 100.063 198.164C100.043 198.473 99.9059 198.764 99.6798 198.976C99.4536 199.188 99.1551 199.306 98.845 199.306C98.5349 199.306 98.2364 199.188 98.0102 198.976C97.7841 198.764 97.6472 198.473 97.6275 198.164C97.6077 197.854 97.7066 197.549 97.904 197.31C98.1013 197.07 98.3824 196.915 98.69 196.876C98.88 196.836 99 196.846 99 196.876Z" fill="#0063AD"/>
</g>
</g>
</g>
<g opacity="0.5">
<path opacity="0.5" d="M68.46 96.8562L58.29 91.1362L53.25 92.5562L63.42 98.2662L68.46 96.8562Z" fill="#7BDAFF"/>
<path opacity="0.5" d="M66.0303 65.106L67.5003 70.366L77.6803 76.076L76.2003 70.826L66.0303 65.106Z" fill="#7BDAFF"/>
<path opacity="0.5" d="M12.5206 69.686L22.6906 75.396L21.2806 70.356L11.1006 64.646L12.5206 69.686Z" fill="#7BDAFF"/>
<path opacity="0.5" d="M69.33 76.856L72.2401 87.226L64.79 89.316L74.9601 95.026L82.41 92.936L79.5 82.576L69.33 76.856Z" fill="#7BDAFF"/>
<path opacity="0.5" d="M19.4504 63.866L17.3604 56.416L51.2204 46.896L41.0504 41.186L7.19043 50.706L9.28043 58.146L19.4504 63.866Z" fill="#7BDAFF"/>
<path opacity="0.5" d="M43.3801 95.3262L29.39 99.2562L25.47 85.2762L15.29 79.5562L23.68 109.426L53.55 101.036L43.3801 95.3262Z" fill="#7BDAFF"/>
<path opacity="0.5" d="M47.5508 39.3661L57.7208 45.076L60.9008 46.856L71.0708 52.576L65.9108 34.2061L47.5508 39.3661Z" fill="#7BDAFF"/>
<path opacity="0.5" d="M62.7207 53.356L64.2007 58.616L74.3707 64.326L72.9007 59.066L62.7207 53.356Z" fill="#7BDAFF"/>
</g>
<path d="M109 97.3959H89.3301L96.4101 90.3159H116.09L109 97.3959ZM93.0001 95.8859H108.43L112.5 91.8259H97.0001L93.0001 95.8859Z" fill="white"/>
<path d="M112.87 57.7861H93.1899L85.8799 50.4761H105.56L112.87 57.7861ZM93.8099 56.2761H109.24L104.93 51.9761H89.5099L93.8099 56.2761Z" fill="white"/>
<path d="M40.2402 97.3959H20.5602L13.4902 90.3159H33.1702L40.2402 97.3959ZM21.1902 95.8859H36.6102L32.5402 91.8259H17.1202L21.1902 95.8859Z" fill="white"/>
<path d="M121.76 84.6463H102.08L111.08 75.6463L98.8799 63.4463H118.56L130.77 75.6463L121.76 84.6463ZM105.76 83.1363H121.19L128.67 75.6563L117.92 65.0163H102.5L113.19 75.7063L105.76 83.1363Z" fill="white"/>
<path d="M28.68 84.1761H9L0 75.1761L38.19 37.0161H57.87L19.7 75.1861L28.68 84.1761ZM9.63 82.6661H25.05L17.57 75.1861L54.24 38.5461H38.81L2.19 75.1861L9.63 82.6661Z" fill="white"/>
<path d="M64.79 141.616L30 106.796H49.68L64.82 121.936L79.96 106.796H99.64L64.79 141.616ZM33.6 108.306L64.79 139.486L96 108.306H80.55L64.79 124.066L49 108.306H33.6Z" fill="white"/>
<path d="M86.8997 31.8161H42.6797L64.7897 9.70605L86.8997 31.8161ZM46.3097 30.306H83.3097L64.8297 11.826L46.3097 30.306Z" fill="white"/>
<path d="M99.8797 44.7963H80.1996L72.8896 37.4863H92.5697L99.8797 44.7963ZM80.8797 43.2963H96.2997L91.9996 39.0163H76.5197L80.8797 43.2963Z" fill="white"/>
<g opacity="0.5">
<path opacity="0.5" d="M312.539 52.6762C312.539 52.6762 312.539 52.6062 312.489 52.5762V52.4962V52.4162C312.145 51.5121 311.517 50.7438 310.699 50.2262L310.479 50.0962L283.999 34.8462L257.599 19.5862L257.379 19.4662C257.058 19.2555 256.686 19.1351 256.303 19.1175C255.919 19.0999 255.538 19.1858 255.199 19.3662H255.139H255.089L251.599 21.3662L253.599 22.2262L246.599 59.2262C246.438 60.2256 246.57 61.2504 246.979 62.1762V62.2562V62.3362C247.327 63.2386 247.954 64.006 248.769 64.5262L301.549 95.0162L301.069 97.3363L304.369 95.4162H304.419C304.775 95.2047 305.079 94.9145 305.306 94.5679C305.533 94.2213 305.678 93.8274 305.729 93.4162L312.869 55.5462C313.037 54.5777 312.922 53.5814 312.539 52.6762Z" fill="white"/>
<path opacity="0.5" d="M298.709 97.3064L245.449 66.5464C244.593 65.9218 243.932 65.0662 243.544 64.0798C243.156 63.0934 243.057 62.0169 243.259 60.9764L250.309 23.6464C250.709 21.5064 252.309 20.5164 253.949 21.4464L307.209 52.2064C308.066 52.8309 308.726 53.6865 309.114 54.6729C309.502 55.6593 309.601 56.7358 309.399 57.7764L302.399 95.1064C301.999 97.2564 300.319 98.2364 298.709 97.3064Z" fill="url(#paint0_linear)"/>
<path opacity="0.5" d="M307 52.0762L280.58 36.8262L272.31 80.7062L298.49 97.1862C298.84 97.4338 299.251 97.5837 299.678 97.6204C300.106 97.6571 300.536 97.5794 300.924 97.3951C301.312 97.2109 301.643 96.9268 301.885 96.572C302.127 96.2172 302.27 95.8045 302.3 95.3762L309.45 57.5062C309.603 56.4616 309.454 55.3948 309.02 54.4323C308.586 53.4699 307.885 52.6522 307 52.0762Z" fill="url(#paint1_linear)"/>
<path opacity="0.5" d="M254.169 21.5661L280.579 36.8261L272.359 80.4261L245.659 66.6761C244.774 66.1001 244.073 65.2824 243.639 64.32C243.205 63.3575 243.055 62.2907 243.209 61.2461L250.359 23.3761C250.389 22.9478 250.532 22.5351 250.774 22.1803C251.015 21.8255 251.347 21.5414 251.735 21.3572C252.123 21.1729 252.553 21.0952 252.98 21.1319C253.408 21.1686 253.818 21.3185 254.169 21.5661Z" fill="url(#paint2_linear)"/>
<path opacity="0.5" d="M243.549 64.0961C243.951 65.1639 244.692 66.0703 245.659 66.6761L298.489 97.1861C298.867 97.4395 299.306 97.5855 299.761 97.6084C300.215 97.6313 300.667 97.5303 301.069 97.3161L277.399 53.7061L243.549 64.0961Z" fill="url(#paint3_linear)"/>
<path opacity="0.5" d="M309.109 54.6562C308.707 53.5884 307.966 52.682 306.999 52.0762L254.169 21.5662C253.79 21.3158 253.35 21.1716 252.897 21.1487C252.443 21.1259 251.991 21.2251 251.589 21.4362L275.259 65.0162L309.109 54.6562Z" fill="url(#paint4_linear)"/>
</g>
<path d="M65.8204 84.786L65.9304 84.516C65.9304 84.456 65.9304 84.3859 66.0104 84.326L66.1004 84.126C66.9702 81.8431 68.5514 79.9007 70.6104 78.586L71.1604 78.266L137.89 39.726L204.61 1.19595L205.16 0.875953C205.974 0.349904 206.913 0.0495494 207.882 0.00562264C208.85 -0.0383041 209.812 0.175775 210.67 0.625953L210.81 0.695946L210.94 0.765953L219.75 5.84595L214.67 8.01595L232.29 101.436C232.684 103.967 232.336 106.558 231.29 108.896L231.21 109.096C231.21 109.156 231.16 109.216 231.13 109.286C230.254 111.57 228.67 113.515 226.61 114.836L93.5704 191.676L94.8004 197.546L86.4504 192.706L86.3204 192.636C85.4281 192.105 84.667 191.38 84.0939 190.514C83.5208 189.649 83.1504 188.665 83.0104 187.636L65.0004 92.016C64.5926 89.5767 64.8767 87.0719 65.8204 84.786Z" fill="white"/>
<path d="M100.76 197.536L235.3 119.826C239.37 117.476 241.84 111.176 240.82 105.746L223 11.4561C222 6.02608 217.85 3.53607 213.78 5.88607L79.2399 83.5861C75.1699 85.9361 72.6999 92.2461 73.7299 97.6661L91.5399 192.016C92.5599 197.386 96.6899 199.886 100.76 197.536Z" fill="url(#paint5_linear)"/>
<path d="M79.8205 83.2763L146.54 44.7363L167.45 155.586L101.31 197.216C96.9405 199.746 92.6205 197.696 91.6705 192.646L73.6705 96.9863C72.6805 91.9363 75.4505 85.7963 79.8205 83.2763Z" fill="#59BDEF"/>
<path d="M213.26 6.19633L146.54 44.7363L167.32 154.886L234.75 120.146C236.988 118.693 238.762 116.628 239.859 114.195C240.957 111.763 241.332 109.066 240.94 106.426L222.94 10.7763C222 5.72633 217.63 3.67633 213.26 6.19633Z" fill="#59BDEF"/>
<path d="M240.1 113.626C239.077 116.326 237.198 118.616 234.75 120.146L101.31 197.216C100.357 197.858 99.2476 198.227 98.1006 198.285C96.9536 198.343 95.8125 198.088 94.7998 197.546L154.58 87.3862L240.1 113.626Z" fill="url(#paint6_linear)"/>
<path d="M74.4805 89.7962C75.4957 87.0951 77.3724 84.8037 79.8205 83.2762L213.26 6.1962C214.215 5.55851 215.325 5.19193 216.471 5.13558C217.618 5.07922 218.758 5.3352 219.77 5.87621L160 116.016L74.4805 89.7962Z" fill="#59BDEF"/>
<path d="M303.412 113.259L302.146 111.993L300.881 113.259L302.146 114.525L303.412 113.259Z" fill="white"/>
<path d="M307.979 113.236L306.713 111.971L305.447 113.236L306.713 114.502L307.979 113.236Z" fill="white"/>
<path d="M305.707 110.962L304.441 109.696L303.176 110.962L304.441 112.228L305.707 110.962Z" fill="white"/>
<path d="M305.69 115.536L304.424 114.271L303.158 115.536L304.424 116.802L305.69 115.536Z" fill="white"/>
<path d="M278.4 152.276H259.4V155.356H278.4V152.276Z" fill="white"/>
<path d="M301.77 152.276H282.77V155.356H301.77V152.276Z" fill="white"/>
<path d="M276 163.106H259.34V159.106H276V163.106ZM260.29 162.106H275V160.016H260.29V162.106Z" fill="white"/>
<path d="M264.55 166.646H259.4V169.726H264.55V166.646Z" fill="white"/>
<defs>
<linearGradient id="paint0_linear" x1="247.86" y1="47.6376" x2="311.093" y2="59.7976" gradientUnits="userSpaceOnUse">
<stop stop-color="#7BDAFF"/>
<stop offset="1" stop-color="#59BDEF"/>
</linearGradient>
<linearGradient id="paint1_linear" x1="312.605" y1="131.424" x2="280.724" y2="71.0165" gradientUnits="userSpaceOnUse">
<stop offset="0.77" stop-color="#59BDEF"/>
<stop offset="0.85" stop-color="#55B8EB"/>
<stop offset="0.93" stop-color="#49ABE1"/>
<stop offset="1" stop-color="#3A9BD5"/>
</linearGradient>
<linearGradient id="paint2_linear" x1="-29695.4" y1="115530" x2="-27582.2" y2="115007" gradientUnits="userSpaceOnUse">
<stop offset="0.77" stop-color="#59BDEF"/>
<stop offset="0.85" stop-color="#55B8EB"/>
<stop offset="0.93" stop-color="#49ABE1"/>
<stop offset="1" stop-color="#3A9BD5"/>
</linearGradient>
<linearGradient id="paint3_linear" x1="264.447" y1="131.891" x2="296.344" y2="76.6026" gradientUnits="userSpaceOnUse">
<stop offset="0.77" stop-color="#3A9BD5"/>
<stop offset="0.84" stop-color="#3896D2"/>
<stop offset="0.92" stop-color="#3189C9"/>
<stop offset="1" stop-color="#2573BA"/>
</linearGradient>
<linearGradient id="paint4_linear" x1="-449279" y1="83225" x2="-446046" y2="85471.8" gradientUnits="userSpaceOnUse">
<stop stop-color="#7BDAFF"/>
<stop offset="1" stop-color="#59BDEF"/>
</linearGradient>
<linearGradient id="paint5_linear" x1="367867" y1="-255401" x2="341107" y2="-250255" gradientUnits="userSpaceOnUse">
<stop stop-color="#7BDAFF"/>
<stop offset="1" stop-color="#59BDEF"/>
</linearGradient>
<linearGradient id="paint6_linear" x1="313743" y1="-184496" x2="304806" y2="-199985" gradientUnits="userSpaceOnUse">
<stop offset="0.77" stop-color="#3A9BD5"/>
<stop offset="0.84" stop-color="#3896D2"/>
<stop offset="0.92" stop-color="#3189C9"/>
<stop offset="1" stop-color="#2573BA"/>
</linearGradient>
</defs>
</svg>
