<svg width="415" height="309" viewBox="0 0 415 309" fill="none" xmlns="http://www.w3.org/2000/svg">
<g clip-path="url(#clip0)">
<path d="M414.643 271.549H0V271.756H414.643V271.549Z" fill="#E0E0E0"/>
<path d="M313.188 280.332H284.66V280.539H313.188V280.332Z" fill="#E0E0E0"/>
<path d="M92.0843 280.431H76.0293V280.638H92.0843V280.431Z" fill="#E0E0E0"/>
<path d="M208.151 279.95H175.609V280.157H208.151V279.95Z" fill="#E0E0E0"/>
<path d="M174.78 276.998H160.234V277.205H174.78V276.998Z" fill="#E0E0E0"/>
<path d="M352.082 277.097H308.139V277.304H352.082V277.097Z" fill="#E0E0E0"/>
<path d="M196.541 234.563H36.4144C35.16 234.561 33.9577 234.061 33.0715 233.173C32.1852 232.285 31.6875 231.082 31.6875 229.828V4.73477C31.6984 3.48755 32.201 2.295 33.086 1.41615C33.9711 0.537308 35.1672 0.0431522 36.4144 0.0410156H196.541C197.797 0.0410156 199.001 0.539904 199.889 1.42793C200.777 2.31596 201.276 3.52038 201.276 4.77623V229.828C201.276 231.084 200.777 232.288 199.889 233.176C199.001 234.064 197.797 234.563 196.541 234.563ZM36.4144 0.206873C35.215 0.20907 34.0654 0.687083 33.2181 1.53599C32.3707 2.3849 31.8948 3.53533 31.8948 4.73477V229.828C31.8948 231.027 32.3707 232.178 33.2181 233.026C34.0654 233.875 35.215 234.353 36.4144 234.356H196.541C197.741 234.353 198.892 233.876 199.74 233.027C200.589 232.178 201.067 231.028 201.069 229.828V4.73477C201.067 3.53457 200.589 2.38416 199.74 1.53548C198.892 0.686814 197.741 0.209065 196.541 0.206873H36.4144Z" fill="#E0E0E0"/>
<path d="M375.923 234.563H215.788C214.533 234.561 213.33 234.061 212.442 233.174C211.555 232.286 211.055 231.083 211.053 229.828V4.73477C211.066 3.48679 211.57 2.29425 212.457 1.41563C213.343 0.537018 214.54 0.0431289 215.788 0.0410156H375.923C377.169 0.0453316 378.363 0.540452 379.246 1.41906C380.129 2.29767 380.631 3.48898 380.642 4.73477V229.828C380.642 231.081 380.145 232.283 379.261 233.17C378.376 234.058 377.176 234.559 375.923 234.563ZM215.788 0.206873C214.588 0.209065 213.437 0.686814 212.589 1.53548C211.74 2.38416 211.262 3.53457 211.26 4.73477V229.828C211.262 231.028 211.74 232.178 212.589 233.027C213.437 233.876 214.588 234.353 215.788 234.356H375.923C377.123 234.353 378.274 233.876 379.122 233.027C379.971 232.178 380.449 231.028 380.451 229.828V4.73477C380.449 3.53457 379.971 2.38416 379.122 1.53548C378.274 0.686814 377.123 0.209065 375.923 0.206873H215.788Z" fill="#E0E0E0"/>
<path d="M364.314 167.747C354.114 152.215 363.427 135.521 361.876 118.239C360.325 100.956 343.905 97.1915 347.015 82.5795C350.614 65.5957 341.019 49.3003 330.148 49.3003C319.276 49.3003 309.689 65.5543 313.288 82.5546C316.398 97.1915 300.02 100.965 298.427 118.214C296.835 135.463 306.189 152.215 295.981 167.722C285.772 183.23 288.459 203.821 294.206 214.03C295.735 216.738 297.578 219.257 299.696 221.535C303.591 225.716 308.305 229.05 313.545 231.33C318.784 233.61 324.437 234.787 330.152 234.787C335.866 234.787 341.519 233.61 346.759 231.33C351.998 229.05 356.712 225.716 360.607 221.535C362.72 219.255 364.56 216.736 366.089 214.03C371.844 203.846 374.523 183.313 364.314 167.747Z" fill="#E0E0E0"/>
<path d="M330.146 179.531C331.514 179.531 332.826 180.075 333.794 181.042C334.761 182.009 335.305 183.321 335.305 184.689V271.549H324.988V184.689C324.988 183.321 325.532 182.009 326.499 181.042C327.466 180.075 328.778 179.531 330.146 179.531Z" fill="#F0F0F0"/>
<path d="M265.297 271.549H251.273V184.698C251.278 182.837 252.019 181.053 253.336 179.736C254.652 178.42 256.436 177.679 258.297 177.674C260.159 177.679 261.943 178.42 263.259 179.736C264.576 181.053 265.317 182.837 265.322 184.698L265.297 271.549Z" fill="#E0E0E0"/>
<path d="M258.272 248.122C282.166 248.122 301.535 228.752 301.535 204.858C301.535 180.964 282.166 161.594 258.272 161.594C234.378 161.594 215.008 180.964 215.008 204.858C215.008 228.752 234.378 248.122 258.272 248.122Z" fill="#F0F0F0"/>
<path d="M309.109 191.876C311.379 182.737 305.811 173.488 296.672 171.218C287.533 168.948 278.285 174.516 276.015 183.655C273.745 192.794 279.313 202.042 288.452 204.313C297.59 206.583 306.839 201.014 309.109 191.876Z" fill="#F0F0F0"/>
<path d="M233.238 179.29C234.134 173.789 230.4 168.603 224.899 167.707C219.398 166.811 214.212 170.544 213.316 176.046C212.42 181.547 216.153 186.733 221.655 187.629C227.156 188.525 232.342 184.792 233.238 179.29Z" fill="#F0F0F0"/>
<path d="M234.256 179.531C238.167 179.531 241.338 176.361 241.338 172.449C241.338 168.538 238.167 165.367 234.256 165.367C230.345 165.367 227.174 168.538 227.174 172.449C227.174 176.361 230.345 179.531 234.256 179.531Z" fill="#F0F0F0"/>
<path d="M169.175 219.71C162.447 220.712 156.018 223.166 150.333 226.9C150.284 220.332 149.081 214.104 145.996 209.071C141.303 213.64 137.496 219.561 134.386 225.93C133.25 213.997 130.107 202.387 123.149 195.031C112.725 201.59 107.352 212.52 104.797 224.097C100.578 216.291 94.4531 209.679 86.9927 204.874C80.6155 211.592 78.5754 220.88 78.7496 230.4C71.5016 221.958 63.4575 215.373 55.6125 214.602C53.6803 227.945 57.7935 240.534 63.0263 250.485C66.4236 256.87 71.4989 262.206 77.7053 265.92C83.9117 269.633 91.0137 271.582 98.2461 271.557H132.321C146.842 271.557 160.459 263.812 167.267 250.983C171.571 242.856 173.628 232.398 169.175 219.71Z" fill="#E0E0E0"/>
<path d="M159.438 47.4266C163.642 35.0951 160.267 26.313 150.009 26.313C143.557 26.313 135.554 29.7711 127.759 35.3937C126.88 32.1843 124.401 30.2687 120.412 30.2687C113.388 30.2687 103.71 36.2064 96.1219 44.5821C93.9855 42.5524 91.1573 41.4111 88.2105 41.3894C81.485 41.0079 73.3497 44.4246 66.2759 49.9725C65.9215 49.4764 65.4535 49.0723 64.9111 48.7939C64.3687 48.5154 63.7675 48.3708 63.1578 48.372C59.285 48.1564 54.0357 51.6062 51.44 56.0677C51.2824 56.3414 51.1415 56.6151 50.9922 56.897H161.478C161.81 52.9994 161.121 49.7486 159.438 47.4266Z" fill="#F0F0F0"/>
<path d="M159.778 122.303C161.834 116.282 160.2 111.995 155.175 111.995C152.015 111.995 148.109 113.653 144.303 116.431C144.098 115.657 143.624 114.982 142.966 114.526C142.308 114.07 141.509 113.864 140.712 113.943C137.287 113.943 132.56 116.846 128.845 120.943C127.804 119.948 126.421 119.39 124.981 119.384C121.664 119.193 117.724 120.86 114.266 123.571C114.099 123.332 113.877 123.135 113.619 122.996C113.361 122.858 113.074 122.782 112.782 122.775C110.891 122.668 108.329 124.351 107.06 126.532L106.836 126.93H160.806C161.031 125.314 160.666 123.671 159.778 122.303Z" fill="#F0F0F0"/>
<path d="M284.255 76.7419C283.829 76.682 283.399 76.6516 282.969 76.6507C283.367 70.6383 281.07 66.7905 276.153 66.7905C272.611 66.7905 268.258 68.7973 263.829 72.1891C265.098 60.5128 261.035 52.9248 251.83 52.9248C244.416 52.9248 235.02 57.9005 225.74 65.9114C224.911 61.3338 222.191 58.5805 217.597 58.5805C209.528 58.5805 198.059 67.0724 188.862 79.0473C187.814 77.6665 186.47 76.5378 184.929 75.7443C183.388 74.9507 181.688 74.5123 179.955 74.4614C172.276 73.9223 162.731 78.7985 154.248 86.7431C153.939 86.0731 153.448 85.5038 152.83 85.1004C152.213 84.697 151.494 84.4759 150.756 84.4625C146.552 84.164 140.805 88.5509 137.396 94.414H291.013C294.621 85.524 291.751 77.7453 284.255 76.7419Z" fill="#F0F0F0"/>
<path d="M117.343 85.5576C53.5708 122.776 49.7561 248.438 140.463 246.033C181.024 244.955 192.874 202.421 229.479 187.493C263.844 173.47 293.475 201.591 328.164 169.747C369.039 132.263 374.911 40.5855 314.157 34.4571C287.703 31.7868 277.503 58.1995 254.391 64.046C207.536 75.9047 164.728 57.9175 117.343 85.5576Z" fill="#13284F"/>
<path opacity="0.9" d="M117.343 85.5576C53.5708 122.776 49.7561 248.438 140.463 246.033C181.024 244.955 192.874 202.421 229.479 187.493C263.844 173.47 293.475 201.591 328.164 169.747C369.039 132.263 374.911 40.5855 314.157 34.4571C287.703 31.7868 277.503 58.1995 254.391 64.046C207.536 75.9047 164.728 57.9175 117.343 85.5576Z" fill="white"/>
<path d="M207.321 309C296.123 309 368.112 304.797 368.112 299.613C368.112 294.428 296.123 290.225 207.321 290.225C118.519 290.225 46.5312 294.428 46.5312 299.613C46.5312 304.797 118.519 309 207.321 309Z" fill="#F5F5F5"/>
<path d="M40.5176 79.2876L229.57 106.496L254.938 132.105L40.5176 79.2876Z" fill="#13284F"/>
<path opacity="0.6" d="M40.5176 79.2876L229.57 106.496L254.938 132.105L40.5176 79.2876Z" fill="white"/>
<path d="M40.5176 79.2876L229.57 106.496L220.796 143.524L40.5176 79.2876Z" fill="#13284F"/>
<path opacity="0.2" d="M40.5176 79.2876L229.57 106.496L220.796 143.524L40.5176 79.2876Z" fill="black"/>
<path d="M216.915 36.4304L227.887 87.8461C228.172 89.1886 227.913 90.5896 227.167 91.7416C226.421 92.8936 225.248 93.7026 223.906 93.9911L125.984 114.889C124.642 115.172 123.242 114.912 122.09 114.167C120.939 113.421 120.13 112.249 119.839 110.908L108.859 59.4928C108.577 58.1492 108.837 56.7483 109.585 55.5966C110.333 54.445 111.506 53.6364 112.848 53.3478L210.77 32.4498C212.114 32.1669 213.515 32.4278 214.666 33.1753C215.818 33.9229 216.627 35.0963 216.915 36.4386V36.4304Z" fill="#13284F"/>
<path opacity="0.4" d="M216.915 36.4304L227.887 87.8461C228.172 89.1886 227.913 90.5896 227.167 91.7416C226.421 92.8936 225.248 93.7026 223.906 93.9911L125.984 114.889C124.642 115.172 123.242 114.912 122.09 114.167C120.939 113.421 120.13 112.249 119.839 110.908L108.859 59.4928C108.577 58.1492 108.837 56.7483 109.585 55.5966C110.333 54.445 111.506 53.6364 112.848 53.3478L210.77 32.4498C212.114 32.1669 213.515 32.4278 214.666 33.1753C215.818 33.9229 216.627 35.0963 216.915 36.4386V36.4304Z" fill="black"/>
<path d="M214.501 33.0633L181.786 73.2256C178.751 76.9492 174.537 79.5255 169.84 80.5283C165.142 81.5311 160.243 80.9003 155.953 78.7403L109.688 55.4374C110.436 54.3622 111.566 53.612 112.847 53.3393L210.769 32.4413C212.047 32.1694 213.38 32.3916 214.501 33.0633Z" fill="#13284F"/>
<path d="M40.5176 79.2876L196.448 116.34L220.796 143.524L40.5176 79.2876Z" fill="#13284F"/>
<path opacity="0.6" d="M40.5176 79.2876L196.448 116.34L220.796 143.524L40.5176 79.2876Z" fill="white"/>
<path d="M97.3977 115.009L96.9785 115.725L114.331 125.889L114.75 125.173L97.3977 115.009Z" fill="#13284F"/>
<path d="M122.411 129.655L121.992 130.371L128.232 134.026L128.651 133.31L122.411 129.655Z" fill="#13284F"/>
<path d="M40.5176 79.2876L196.448 116.34L166.138 152.878L40.5176 79.2876Z" fill="#13284F"/>
<path d="M249.082 166.114C248.872 166.115 248.664 166.075 248.469 165.998L223.076 155.947C222.67 155.783 222.345 155.466 222.172 155.063C221.999 154.661 221.992 154.206 222.153 153.799C222.314 153.392 222.63 153.065 223.031 152.889C223.432 152.713 223.887 152.704 224.295 152.862L249.696 162.913C250.055 163.055 250.354 163.318 250.54 163.657C250.726 163.995 250.788 164.388 250.715 164.768C250.643 165.147 250.44 165.489 250.141 165.735C249.843 165.981 249.469 166.115 249.082 166.114Z" fill="#13284F"/>
<path opacity="0.3" d="M249.082 166.114C248.872 166.115 248.664 166.075 248.469 165.998L223.076 155.947C222.67 155.783 222.345 155.466 222.172 155.063C221.999 154.661 221.992 154.206 222.153 153.799C222.314 153.392 222.63 153.065 223.031 152.889C223.432 152.713 223.887 152.704 224.295 152.862L249.696 162.913C250.055 163.055 250.354 163.318 250.54 163.657C250.726 163.995 250.788 164.388 250.715 164.768C250.643 165.147 250.44 165.489 250.141 165.735C249.843 165.981 249.469 166.115 249.082 166.114Z" fill="black"/>
<path d="M247.582 151.552C247.374 151.55 247.168 151.508 246.976 151.427L233.335 145.996C233.131 145.917 232.944 145.798 232.786 145.647C232.629 145.495 232.502 145.314 232.414 145.114C232.327 144.913 232.28 144.698 232.276 144.479C232.272 144.26 232.311 144.043 232.391 143.84C232.472 143.636 232.592 143.451 232.744 143.294C232.896 143.137 233.078 143.012 233.279 142.925C233.48 142.839 233.696 142.793 233.915 142.791C234.134 142.788 234.351 142.829 234.554 142.911L248.195 148.318C248.604 148.478 248.933 148.795 249.108 149.198C249.284 149.6 249.293 150.056 249.133 150.465C249.016 150.783 248.805 151.057 248.527 151.252C248.25 151.446 247.92 151.551 247.582 151.552Z" fill="#13284F"/>
<path opacity="0.5" d="M247.582 151.552C247.374 151.55 247.168 151.508 246.976 151.427L233.335 145.996C233.131 145.917 232.944 145.798 232.786 145.647C232.629 145.495 232.502 145.314 232.414 145.114C232.327 144.913 232.28 144.698 232.276 144.479C232.272 144.26 232.311 144.043 232.391 143.84C232.472 143.636 232.592 143.451 232.744 143.294C232.896 143.137 233.078 143.012 233.279 142.925C233.48 142.839 233.696 142.793 233.915 142.791C234.134 142.788 234.351 142.829 234.554 142.911L248.195 148.318C248.604 148.478 248.933 148.795 249.108 149.198C249.284 149.6 249.293 150.056 249.133 150.465C249.016 150.783 248.805 151.057 248.527 151.252C248.25 151.446 247.92 151.551 247.582 151.552Z" fill="white"/>
<path d="M219.062 165.898C218.855 165.896 218.65 165.856 218.457 165.782L193.686 155.947C193.482 155.868 193.296 155.749 193.138 155.598C192.98 155.446 192.854 155.265 192.766 155.065C192.678 154.865 192.631 154.649 192.627 154.43C192.623 154.211 192.663 153.994 192.743 153.791C192.823 153.587 192.943 153.402 193.096 153.245C193.248 153.088 193.43 152.963 193.631 152.876C193.832 152.79 194.048 152.744 194.267 152.742C194.485 152.739 194.702 152.78 194.905 152.862L219.676 162.664C220.035 162.806 220.334 163.069 220.52 163.408C220.706 163.746 220.768 164.139 220.695 164.519C220.623 164.898 220.42 165.24 220.121 165.486C219.823 165.732 219.449 165.866 219.062 165.865V165.898Z" fill="#13284F"/>
<path opacity="0.3" d="M219.062 165.898C218.855 165.896 218.65 165.856 218.457 165.782L193.686 155.947C193.482 155.868 193.296 155.749 193.138 155.598C192.98 155.446 192.854 155.265 192.766 155.065C192.678 154.865 192.631 154.649 192.627 154.43C192.623 154.211 192.663 153.994 192.743 153.791C192.823 153.587 192.943 153.402 193.096 153.245C193.248 153.088 193.43 152.963 193.631 152.876C193.832 152.79 194.048 152.744 194.267 152.742C194.485 152.739 194.702 152.78 194.905 152.862L219.676 162.664C220.035 162.806 220.334 163.069 220.52 163.408C220.706 163.746 220.768 164.139 220.695 164.519C220.623 164.898 220.42 165.24 220.121 165.486C219.823 165.732 219.449 165.866 219.062 165.865V165.898Z" fill="black"/>
<path d="M308.742 91.1128C310.94 95.4002 312.955 99.6959 314.871 104.091C316.786 108.486 318.569 112.94 320.128 117.608L320.692 119.375C320.792 119.69 320.933 120.204 321.016 120.569C321.098 120.934 321.173 121.349 321.215 121.697C321.404 123.035 321.501 124.384 321.505 125.735C321.517 128.228 321.401 130.719 321.156 133.199C320.693 138 319.94 142.769 318.901 147.479L314.348 146.973C314.29 142.305 314.249 137.586 314.083 132.983C314.008 130.695 313.875 128.397 313.643 126.241C313.538 125.229 313.372 124.224 313.146 123.231C313.104 122.999 313.038 122.825 312.988 122.634C312.938 122.443 312.889 122.377 312.806 122.128L312.175 120.561C310.442 116.365 308.493 112.135 306.503 107.922L300.482 95.2841L308.742 91.1128Z" fill="#E4897B"/>
<path d="M314.416 145.514L312.293 149.486L319.077 151.377C319.077 151.377 320.37 148.184 318.828 145.663L314.416 145.514Z" fill="#E4897B"/>
<path d="M309.695 155.208L315.932 155.698L319.075 151.377L312.291 149.486L309.695 155.208Z" fill="#E4897B"/>
<path d="M280.191 62.453C280.1 62.9422 279.76 63.2822 279.445 63.2159C279.13 63.1496 278.956 62.71 279.055 62.2291C279.155 61.7481 279.487 61.3998 279.802 61.4661C280.117 61.5325 280.299 61.972 280.191 62.453Z" fill="#263238"/>
<path d="M279.809 63.2822C278.933 64.639 277.876 65.8694 276.666 66.9394C276.948 67.2398 277.293 67.4755 277.675 67.6301C278.057 67.7847 278.468 67.8546 278.88 67.835L279.809 63.2822Z" fill="#FF264A"/>
<path d="M282.497 60.1392C282.419 60.1372 282.344 60.1044 282.29 60.0479C282.052 59.7754 281.752 59.5629 281.417 59.4274C281.081 59.292 280.718 59.2375 280.358 59.2684C280.289 59.2691 280.222 59.2454 280.169 59.2014C280.116 59.1575 280.081 59.0963 280.069 59.0286C280.057 58.9609 280.069 58.8912 280.104 58.8319C280.139 58.7725 280.193 58.7274 280.258 58.7045C280.719 58.6461 281.188 58.7026 281.622 58.8689C282.056 59.0353 282.442 59.3064 282.746 59.6582C282.799 59.7124 282.829 59.7854 282.829 59.8614C282.829 59.9373 282.799 60.0103 282.746 60.0645C282.713 60.0949 282.673 60.1174 282.63 60.1303C282.587 60.1432 282.542 60.1463 282.497 60.1392Z" fill="#263238"/>
<path d="M293.908 69.2285C293.037 73.6901 292.166 81.8503 295.285 84.8274C295.285 84.8274 294.066 89.347 285.781 89.347C276.659 89.347 281.436 84.8274 281.436 84.8274C286.411 83.6415 286.27 79.9512 285.408 76.4931L293.908 69.2285Z" fill="#E4897B"/>
<path d="M296.535 87.6384C297.19 85.4573 297.912 82.9612 296.419 82.1734C294.761 81.3441 285.746 80.4319 282.636 82.049C279.527 83.6661 280.414 88.1028 280.414 88.1028L296.535 87.6384Z" fill="#263238"/>
<path d="M315.658 294.437C315.401 294.472 315.139 294.454 314.889 294.386C314.638 294.317 314.403 294.2 314.199 294.039C314.127 293.939 314.088 293.819 314.088 293.695C314.088 293.572 314.127 293.451 314.199 293.351C314.246 293.265 314.312 293.19 314.39 293.132C314.469 293.073 314.559 293.032 314.655 293.011C315.551 292.812 317.226 293.956 317.3 294.006C317.322 294.024 317.339 294.047 317.349 294.073C317.359 294.099 317.362 294.128 317.359 294.155C317.354 294.182 317.341 294.207 317.322 294.226C317.302 294.246 317.278 294.259 317.251 294.263C316.727 294.376 316.194 294.435 315.658 294.437ZM314.896 293.276H314.721C314.665 293.288 314.612 293.312 314.566 293.346C314.521 293.381 314.483 293.425 314.456 293.475C314.323 293.708 314.398 293.807 314.456 293.84C314.713 294.189 315.957 294.189 316.869 294.039C316.275 293.647 315.601 293.392 314.896 293.293V293.276Z" fill="#13284F"/>
<path d="M317.218 294.288H317.152C316.521 293.94 315.302 292.629 315.427 291.933C315.448 291.825 315.506 291.728 315.591 291.659C315.675 291.589 315.782 291.551 315.891 291.551C316.001 291.539 316.111 291.549 316.216 291.581C316.322 291.612 316.42 291.664 316.505 291.734C317.21 292.314 317.334 294.072 317.334 294.147C317.338 294.173 317.333 294.2 317.321 294.223C317.309 294.247 317.291 294.267 317.268 294.28C317.252 294.286 317.235 294.289 317.218 294.288ZM315.991 291.8H315.958C315.767 291.8 315.75 291.916 315.742 291.949C315.667 292.356 316.447 293.359 317.069 293.832C317.027 293.139 316.779 292.475 316.356 291.924C316.3 291.881 316.236 291.849 316.167 291.83C316.099 291.812 316.028 291.807 315.958 291.817L315.991 291.8Z" fill="#13284F"/>
<path d="M279.081 294.437C278.301 294.437 277.546 294.329 277.289 293.981C277.224 293.889 277.189 293.779 277.189 293.666C277.189 293.553 277.224 293.443 277.289 293.351C277.34 293.266 277.407 293.192 277.487 293.133C277.566 293.075 277.657 293.033 277.754 293.011C278.757 292.737 280.897 293.948 280.988 293.998C281.012 294.014 281.032 294.036 281.043 294.063C281.055 294.089 281.059 294.118 281.054 294.147C281.049 294.176 281.036 294.203 281.015 294.224C280.994 294.245 280.967 294.258 280.938 294.263C280.326 294.378 279.704 294.437 279.081 294.437ZM278.11 293.26C278.02 293.247 277.927 293.247 277.837 293.26C277.778 293.271 277.723 293.295 277.674 293.329C277.626 293.363 277.585 293.408 277.555 293.459C277.447 293.641 277.488 293.724 277.555 293.774C277.828 294.155 279.371 294.18 280.515 294.023C279.77 293.62 278.953 293.367 278.11 293.276V293.26Z" fill="#13284F"/>
<path d="M280.921 294.288H280.863C280.125 293.964 278.673 292.629 278.781 291.957C278.781 291.792 278.922 291.592 279.32 291.551C279.468 291.529 279.619 291.539 279.763 291.582C279.906 291.625 280.038 291.7 280.149 291.8C280.929 292.43 281.086 294.072 281.095 294.147C281.098 294.172 281.094 294.198 281.084 294.221C281.074 294.244 281.058 294.265 281.037 294.279C281.019 294.289 281 294.295 280.98 294.296C280.96 294.297 280.939 294.295 280.921 294.288ZM279.436 291.8H279.345C279.088 291.8 279.071 291.932 279.063 291.966C278.997 292.38 279.992 293.417 280.722 293.865C280.65 293.168 280.36 292.512 279.892 291.991C279.774 291.888 279.626 291.827 279.469 291.816L279.436 291.8Z" fill="#13284F"/>
<path d="M287.621 294.139H281.525L280.92 280.033H287.015L287.621 294.139Z" fill="#E4897B"/>
<path d="M324.202 294.139H318.107L315.047 280.033H321.134L324.202 294.139Z" fill="#E4897B"/>
<path d="M317.674 293.434H324.515C324.637 293.435 324.755 293.477 324.85 293.554C324.945 293.631 325.011 293.738 325.038 293.857L326.24 299.272C326.268 299.404 326.265 299.54 326.232 299.671C326.2 299.802 326.138 299.924 326.052 300.027C325.966 300.131 325.858 300.214 325.735 300.27C325.613 300.326 325.479 300.353 325.344 300.35C322.956 300.309 321.795 300.168 318.785 300.168C316.936 300.168 313.121 300.367 310.558 300.367C307.996 300.367 307.672 297.879 308.717 297.605C313.411 296.577 315.177 295.159 316.678 293.816C316.951 293.569 317.306 293.433 317.674 293.434Z" fill="#263238"/>
<path d="M281.569 293.434H288.203C288.325 293.435 288.443 293.477 288.538 293.554C288.633 293.631 288.699 293.738 288.725 293.857L289.928 299.272C289.957 299.403 289.956 299.538 289.925 299.669C289.894 299.799 289.834 299.92 289.749 300.024C289.664 300.127 289.558 300.211 289.436 300.267C289.315 300.324 289.183 300.352 289.049 300.35C286.652 300.309 283.186 300.168 280.167 300.168C276.643 300.168 273.591 300.367 269.453 300.367C266.965 300.367 266.26 297.879 267.305 297.605C272.073 296.56 275.963 296.453 280.084 293.915C280.523 293.617 281.038 293.45 281.569 293.434Z" fill="#263238"/>
<path d="M278.641 95.5252C273.546 95.1305 268.477 94.4578 263.457 93.5101C260.969 93.0291 258.431 92.49 255.91 91.81C253.326 91.1487 250.788 90.3176 248.314 89.3222C247.675 89.0568 247.028 88.7666 246.39 88.4929C245.671 88.1387 244.978 87.7341 244.317 87.2821C243.122 86.4943 242.094 85.6733 241.074 84.8606C239.042 83.202 237.16 81.5435 235.269 79.8434C231.562 76.4102 228.046 72.8609 224.654 69.1291L227.706 65.7207L239.739 74.3702C241.721 75.7965 243.728 77.198 245.702 78.5166C246.68 79.1717 247.684 79.7854 248.604 80.3078C248.989 80.5274 249.388 80.7213 249.798 80.8883C250.288 81.0791 250.785 81.2698 251.308 81.4522C255.79 82.8323 260.373 83.8583 265.016 84.5206C269.751 85.267 274.644 85.8806 279.371 86.3782L278.641 95.5252Z" fill="#E4897B"/>
<path d="M306.19 86.2035C311.903 87.5138 317.675 104.207 317.675 104.207L305.924 112.641C305.924 112.641 302.607 104.862 299.406 98.0623C296.056 90.9388 300.351 84.8684 306.19 86.2035Z" fill="#13284F"/>
<path opacity="0.4" d="M306.19 86.2035C311.903 87.5138 317.675 104.207 317.675 104.207L305.924 112.641C305.924 112.641 302.607 104.862 299.406 98.0623C296.056 90.9388 300.351 84.8684 306.19 86.2035Z" fill="black"/>
<path d="M302.897 95.3257L300.566 100.542C302.98 105.75 305.186 110.908 305.774 112.285C305.691 106.123 304.522 98.477 302.897 95.3257Z" fill="#13284F"/>
<path opacity="0.6" d="M302.897 95.3257L300.566 100.542C302.98 105.75 305.186 110.908 305.774 112.285C305.691 106.123 304.522 98.477 302.897 95.3257Z" fill="black"/>
<path d="M272.064 86.5188C272.064 86.5188 265.579 93.8414 271.699 139.178H304.282C304.514 134.203 301.371 109.772 306.189 86.2037C302.587 85.5102 298.945 85.0504 295.284 84.8271C290.671 84.5615 286.047 84.5615 281.435 84.8271C278.272 85.1458 275.139 85.7114 272.064 86.5188Z" fill="#13284F"/>
<path opacity="0.4" d="M272.064 86.5188C272.064 86.5188 265.579 93.8414 271.699 139.178H304.282C304.514 134.203 301.371 109.772 306.189 86.2037C302.587 85.5102 298.945 85.0504 295.284 84.8271C290.671 84.5615 286.047 84.5615 281.435 84.8271C278.272 85.1458 275.139 85.7114 272.064 86.5188Z" fill="black"/>
<path d="M269.651 95.3257C269.436 97.0423 269.27 99.0741 269.162 101.471C272.38 100.505 275.437 99.0686 278.234 97.2082L269.651 95.3257Z" fill="#13284F"/>
<path opacity="0.6" d="M269.651 95.3257C269.436 97.0423 269.27 99.0741 269.162 101.471C272.38 100.505 275.437 99.0686 278.234 97.2082L269.651 95.3257Z" fill="black"/>
<path d="M283.616 96.2379C279.254 100.102 262.602 99.7126 262.602 99.7126L262.055 83.5913C267.678 84.3923 273.35 84.8024 279.03 84.8186C288.31 84.6279 288.376 91.9754 283.616 96.2379Z" fill="#13284F"/>
<path opacity="0.4" d="M283.616 96.2379C279.254 100.102 262.602 99.7126 262.602 99.7126L262.055 83.5913C267.678 84.3923 273.35 84.8024 279.03 84.8186C288.31 84.6279 288.376 91.9754 283.616 96.2379Z" fill="black"/>
<path d="M227.864 65.7536L223.718 60.8691L219.248 65.8449C219.248 65.8449 222.001 70.4723 226.372 69.7425L227.864 65.7536Z" fill="#E4897B"/>
<path d="M217.779 55.1719L216.17 61.5408L219.213 65.8116L223.683 60.8691L217.779 55.1719Z" fill="#E4897B"/>
<path d="M280.92 280.033L281.235 287.306H287.33L287.015 280.033H280.92Z" fill="#CE6F64"/>
<path d="M321.142 280.033H315.047L316.623 287.306H322.718L321.142 280.033Z" fill="#CE6F64"/>
<path d="M284.585 56.4324C279.12 53.9446 277.395 42.8819 293.118 45.6517C293.118 45.6517 290.747 48.2722 295.557 49.9308C300.366 51.5894 296.344 61.8311 284.585 56.4324Z" fill="#263238"/>
<path d="M296.462 64.7252C294.894 70.5302 294.281 74.063 290.657 76.4928C285.233 80.1416 278.491 75.9537 278.275 69.759C278.085 64.1945 280.68 55.5782 286.941 54.4006C288.323 54.1296 289.752 54.2173 291.09 54.6551C292.429 55.093 293.633 55.8664 294.587 56.9018C295.542 57.9371 296.216 59.1998 296.544 60.5693C296.872 61.9389 296.844 63.3697 296.462 64.7252Z" fill="#E4897B"/>
<path d="M292.904 48.5544C296.627 50.6276 301.669 51.8715 301.196 54.8238C300.575 58.4312 304.24 56.1755 303.386 61.541C302.83 65.0489 296.362 75.6803 291.776 75.1661C284.926 74.3368 285.797 63.921 285.772 58.4312C285.755 55.1887 285.606 44.466 292.904 48.5544Z" fill="#263238"/>
<path d="M284.951 53.2065C283.293 53.5963 281.095 63.158 287.522 64.037C294.911 65.0404 284.951 53.2065 284.951 53.2065Z" fill="#263238"/>
<path d="M285.118 56.5984C283.086 56.7809 278.484 54.3345 279.048 50.6525C279.048 50.6276 281.958 54.9564 285.118 56.5984Z" fill="#263238"/>
<path d="M288.136 64.7996C287.512 66.1669 286.454 67.2895 285.126 67.9924C283.376 68.9046 282.389 67.5777 282.787 65.8196C283.144 64.244 284.487 61.864 286.287 61.6732C288.086 61.4825 288.857 63.141 288.136 64.7996Z" fill="#E4897B"/>
<path d="M297.258 58.0909C298.497 57.5531 299.584 56.7163 300.42 55.6554C301.257 54.5946 301.817 53.3428 302.051 52.0122C302.051 52.0122 304.788 59.6168 297.258 58.0909Z" fill="#263238"/>
<path d="M304.173 57.9667C303.596 57.5791 302.932 57.3406 302.24 57.2726C301.548 57.2046 300.85 57.3091 300.209 57.5769C300.209 57.5769 302.763 54.2681 304.173 57.9667Z" fill="#263238"/>
<path d="M283.26 139.178C283.26 139.178 290.176 185.734 293.966 203.174C298.112 222.248 313.786 285.904 313.786 285.904H324.94C324.94 285.904 314.615 223.815 312.243 204.874C309.672 184.349 304.282 139.145 304.282 139.145L283.26 139.178Z" fill="#13284F"/>
<path opacity="0.5" d="M283.26 139.178C283.26 139.178 290.176 185.734 293.966 203.174C298.112 222.248 313.786 285.904 313.786 285.904H324.94C324.94 285.904 314.615 223.815 312.243 204.874C309.672 184.349 304.282 139.145 304.282 139.145L283.26 139.178Z" fill="white"/>
<path d="M312.002 281.791C311.952 281.791 313.154 286.078 313.154 286.078H325.71L325.477 282.255L312.002 281.791Z" fill="#13284F"/>
<path opacity="0.1" d="M312.002 281.791C311.952 281.791 313.154 286.078 313.154 286.078H325.71L325.477 282.255L312.002 281.791Z" fill="black"/>
<path d="M287.63 155.764C295.624 157.331 294.778 187.144 293.816 202.478C291.511 191.639 288.135 170.782 285.83 155.98C286.388 155.705 287.023 155.629 287.63 155.764Z" fill="#13284F"/>
<path opacity="0.4" d="M287.63 155.764C295.624 157.331 294.778 187.144 293.816 202.478C291.511 191.639 288.135 170.782 285.83 155.98C286.388 155.705 287.023 155.629 287.63 155.764Z" fill="white"/>
<path d="M271.698 139.178C271.698 139.178 270.868 184.723 271.523 203.307C272.212 222.629 278.987 285.904 278.987 285.904H289.303C289.303 285.904 289.685 223.757 290.133 204.783C290.638 184.092 293.135 139.178 293.135 139.178H271.698Z" fill="#13284F"/>
<path opacity="0.5" d="M271.698 139.178C271.698 139.178 270.868 184.723 271.523 203.307C272.212 222.629 278.987 285.904 278.987 285.904H289.303C289.303 285.904 289.685 223.757 290.133 204.783C290.638 184.092 293.135 139.178 293.135 139.178H271.698Z" fill="white"/>
<path d="M281.128 278.49C281.103 278.49 281.079 278.481 281.061 278.464C281.042 278.447 281.031 278.424 281.029 278.399C279.204 260.884 274.917 218.508 274.394 203.307C273.839 187.791 274.345 152.978 274.51 142.678C274.51 142.652 274.521 142.626 274.54 142.608C274.558 142.589 274.584 142.579 274.61 142.579C274.637 142.579 274.663 142.589 274.683 142.607C274.703 142.626 274.716 142.651 274.718 142.678C274.552 152.978 274.046 187.791 274.602 203.299C275.141 218.5 279.428 260.86 281.236 278.374C281.236 278.402 281.226 278.429 281.208 278.451C281.19 278.472 281.164 278.486 281.136 278.49H281.128Z" fill="#13284F"/>
<path opacity="0.4" d="M281.128 278.49C281.103 278.49 281.079 278.481 281.061 278.464C281.042 278.447 281.031 278.424 281.029 278.399C279.204 260.884 274.917 218.508 274.394 203.307C273.839 187.791 274.345 152.978 274.51 142.678C274.51 142.652 274.521 142.626 274.54 142.608C274.558 142.589 274.584 142.579 274.61 142.579C274.637 142.579 274.663 142.589 274.683 142.607C274.703 142.626 274.716 142.651 274.718 142.678C274.552 152.978 274.046 187.791 274.602 203.299C275.141 218.5 279.428 260.86 281.236 278.374C281.236 278.402 281.226 278.429 281.208 278.451C281.19 278.472 281.164 278.486 281.136 278.49H281.128Z" fill="white"/>
<path d="M276.982 281.791C276.941 281.791 277.571 286.078 277.571 286.078H290.118L290.458 282.255L276.982 281.791Z" fill="#13284F"/>
<path opacity="0.1" d="M276.982 281.791C276.941 281.791 277.571 286.078 277.571 286.078H290.118L290.458 282.255L276.982 281.791Z" fill="black"/>
</g>
<defs>
<clipPath id="clip0">
<rect width="414.643" height="309" fill="white"/>
</clipPath>
</defs>
</svg>
