<svg width="41" height="36" viewBox="0 0 41 36" fill="none" xmlns="http://www.w3.org/2000/svg">
<path d="M15.2901 2.41227L6.04565 6.04692C2.43106 7.46808 0.997747 10.9616 2.48179 14.7361L5.90683 23.4474C7.38668 27.2113 10.8155 28.7931 14.4301 27.372L23.6745 23.7373C27.2891 22.3162 28.7117 18.8269 27.2319 15.063L23.8068 6.35169C22.3228 2.57716 18.9047 0.991107 15.2901 2.41227" fill="url(#paint0_linear)"/>
<g opacity="0.5" filter="url(#filter0_f)">
<path d="M25.4343 14.9168L23.1146 9.01053C22.2731 6.86817 20.3321 6.19072 17.8458 7.16726L9.42478 10.4747C6.89766 11.4672 5.96913 13.2717 6.81056 15.4141L9.13032 21.3204C9.98531 23.4973 11.8798 24.1523 14.407 23.1598L22.828 19.8523C25.3143 18.8758 26.2893 17.0937 25.4343 14.9168Z" fill="#FF624D"/>
</g>
<g filter="url(#filter1_b)">
<path d="M33.0637 12.4335L32.9109 12.0976C32.4982 11.2274 32.0243 10.2196 31.7339 9.63946C31.0308 8.26531 29.8233 7.5019 28.3406 7.48663H21.1413C19.6586 7.5019 18.4664 8.26531 17.7632 9.63946C17.4575 10.2502 16.9378 11.3495 16.5099 12.2503L16.4181 12.4335C16.3723 12.5557 16.25 12.6168 16.1277 12.6168C12.444 12.6168 9.46338 15.6093 9.46338 19.2737V28.3431C9.46338 32.0074 12.444 35 16.1277 35H33.3694C37.0379 35 40.0338 32.0074 40.0338 28.3431V19.2737C40.0338 15.6093 37.0379 12.6168 33.3694 12.6168C33.2319 12.6168 33.1249 12.5404 33.0637 12.4335Z" fill="#FFAC95" fill-opacity="0.4"/>
<path d="M33.0812 12.0201L33.0813 12.0201L33.08 12.0174C33.0096 11.869 32.9374 11.7164 32.8645 11.5625C32.511 10.8159 32.1431 10.0387 31.9013 9.55567L31.9005 9.5542C31.1672 8.12097 29.8979 7.31549 28.3425 7.29948V7.29947H28.3406L21.1413 7.29946L21.1393 7.29948C19.5831 7.3155 18.3296 8.12177 17.5966 9.5542L17.5959 9.55568C17.3268 10.0931 16.8932 11.0065 16.5024 11.8297C16.4478 11.9447 16.394 12.058 16.3416 12.1683L16.2508 12.3498C16.2478 12.3556 16.2452 12.3616 16.2429 12.3678C16.2317 12.3977 16.1948 12.4296 16.1277 12.4296C12.3405 12.4296 9.27621 15.5061 9.27621 19.2737V28.3431C9.27621 32.1107 12.3405 35.1872 16.1277 35.1872H33.3694C37.1411 35.1872 40.221 32.111 40.221 28.3431V19.2737C40.221 15.5058 37.1411 12.4296 33.3694 12.4296C33.3113 12.4296 33.263 12.4007 33.23 12.347L33.0812 12.0201Z" stroke="url(#paint1_linear)" stroke-width="0.374332" stroke-linecap="round" stroke-linejoin="round"/>
</g>
<g filter="url(#filter2_bd)">
<mask id="path-5-inside-1" fill="white">
<path fill-rule="evenodd" clip-rule="evenodd" d="M31.9478 18.2966C31.9478 19.06 32.5592 19.6708 33.3235 19.6708C34.0877 19.6708 34.7144 19.06 34.7144 18.2966C34.7144 17.5332 34.0877 16.9072 33.3235 16.9072C32.5592 16.9072 31.9478 17.5332 31.9478 18.2966ZM28.9826 27.5187C27.8973 28.6027 26.3994 29.2745 24.7486 29.2745C23.1436 29.2745 21.6457 28.6485 20.4993 27.5187C19.3682 26.3736 18.7415 24.8773 18.7415 23.2741C18.7262 21.6862 19.3529 20.1899 20.484 19.0448C21.6304 17.8997 23.1436 17.2737 24.7486 17.2737C26.3535 17.2737 27.8668 17.8997 28.9979 19.0295C30.129 20.1746 30.7557 21.6862 30.7557 23.2741C30.7404 24.9383 30.0678 26.4346 28.9826 27.5187ZM24.7485 19.5639C23.7549 19.5639 22.8226 19.9456 22.1041 20.6632C21.401 21.3655 21.0189 22.2969 21.0342 23.2588V23.274C21.0342 24.2665 21.4163 25.1978 22.1194 25.9002C22.8226 26.6025 23.7549 26.9842 24.7485 26.9842C26.7967 26.9842 28.4475 25.32 28.4628 23.274C28.4628 22.2816 28.0807 21.3502 27.3775 20.6479C26.6744 19.9456 25.742 19.5639 24.7485 19.5639Z"/>
</mask>
<path fill-rule="evenodd" clip-rule="evenodd" d="M31.9478 18.2966C31.9478 19.06 32.5592 19.6708 33.3235 19.6708C34.0877 19.6708 34.7144 19.06 34.7144 18.2966C34.7144 17.5332 34.0877 16.9072 33.3235 16.9072C32.5592 16.9072 31.9478 17.5332 31.9478 18.2966ZM28.9826 27.5187C27.8973 28.6027 26.3994 29.2745 24.7486 29.2745C23.1436 29.2745 21.6457 28.6485 20.4993 27.5187C19.3682 26.3736 18.7415 24.8773 18.7415 23.2741C18.7262 21.6862 19.3529 20.1899 20.484 19.0448C21.6304 17.8997 23.1436 17.2737 24.7486 17.2737C26.3535 17.2737 27.8668 17.8997 28.9979 19.0295C30.129 20.1746 30.7557 21.6862 30.7557 23.2741C30.7404 24.9383 30.0678 26.4346 28.9826 27.5187ZM24.7485 19.5639C23.7549 19.5639 22.8226 19.9456 22.1041 20.6632C21.401 21.3655 21.0189 22.2969 21.0342 23.2588V23.274C21.0342 24.2665 21.4163 25.1978 22.1194 25.9002C22.8226 26.6025 23.7549 26.9842 24.7485 26.9842C26.7967 26.9842 28.4475 25.32 28.4628 23.274C28.4628 22.2816 28.0807 21.3502 27.3775 20.6479C26.6744 19.9456 25.742 19.5639 24.7485 19.5639Z" fill="url(#paint2_linear)"/>
<path d="M28.9826 27.5187L28.9297 27.4657L28.9826 27.5187ZM20.4993 27.5187L20.446 27.5713L20.4467 27.572L20.4993 27.5187ZM18.7415 23.2741H18.8164L18.8163 23.2734L18.7415 23.2741ZM20.484 19.0448L20.4311 18.9918L20.4307 18.9922L20.484 19.0448ZM28.9979 19.0295L29.0511 18.9769L29.0508 18.9766L28.9979 19.0295ZM30.7557 23.2741L30.8305 23.2748V23.2741H30.7557ZM22.1041 20.6632L22.0512 20.6102L22.0512 20.6102L22.1041 20.6632ZM21.0342 23.2588H21.1091L21.109 23.2576L21.0342 23.2588ZM22.1194 25.9002L22.0665 25.9531L22.0665 25.9531L22.1194 25.9002ZM28.4628 23.274L28.5377 23.2746V23.274H28.4628ZM27.3775 20.6479L27.3246 20.7009L27.3246 20.7009L27.3775 20.6479ZM33.3235 19.5959C32.6005 19.5959 32.0227 19.0186 32.0227 18.2966H31.8729C31.8729 19.1015 32.5179 19.7456 33.3235 19.7456V19.5959ZM34.6396 18.2966C34.6396 19.0175 34.0475 19.5959 33.3235 19.5959V19.7456C34.1279 19.7456 34.7893 19.1025 34.7893 18.2966H34.6396ZM33.3235 16.9821C34.0465 16.9821 34.6396 17.5747 34.6396 18.2966H34.7893C34.7893 17.4918 34.129 16.8324 33.3235 16.8324V16.9821ZM32.0227 18.2966C32.0227 17.5736 32.6016 16.9821 33.3235 16.9821V16.8324C32.5169 16.8324 31.8729 17.4929 31.8729 18.2966H32.0227ZM24.7486 29.3494C26.4201 29.3494 27.9368 28.6691 29.0355 27.5716L28.9297 27.4657C27.8578 28.5364 26.3787 29.1996 24.7486 29.1996V29.3494ZM20.4467 27.572C21.6068 28.7154 23.1235 29.3494 24.7486 29.3494V29.1996C23.1637 29.1996 21.6845 28.5817 20.5518 27.4653L20.4467 27.572ZM18.6666 23.2741C18.6666 24.8974 19.3014 26.4125 20.446 27.5713L20.5525 27.4661C19.435 26.3346 18.8164 24.8571 18.8164 23.2741H18.6666ZM20.4307 18.9922C19.2862 20.1509 18.6511 21.6662 18.6666 23.2748L18.8163 23.2734C18.8013 21.7062 19.4196 20.2289 20.5373 19.0974L20.4307 18.9922ZM24.7486 17.1988C23.1237 17.1988 21.5915 17.8328 20.4311 18.9918L20.5369 19.0978C21.6693 17.9666 23.1636 17.3485 24.7486 17.3485V17.1988ZM29.0508 18.9766C27.9056 17.8327 26.3733 17.1988 24.7486 17.1988V17.3485C26.3337 17.3485 27.8279 17.9667 28.9449 19.0825L29.0508 18.9766ZM30.8305 23.2741C30.8305 21.6662 30.1958 20.1358 29.0511 18.9769L28.9446 19.0821C30.0621 20.2135 30.6808 21.7062 30.6808 23.2741H30.8305ZM29.0355 27.5716C30.1342 26.4741 30.815 24.9592 30.8305 23.2748L30.6808 23.2734C30.6657 24.9175 30.0014 26.3951 28.9297 27.4657L29.0355 27.5716ZM22.1571 20.7161C22.8614 20.0125 23.7748 19.6387 24.7485 19.6387V19.489C23.7351 19.489 22.7837 19.8786 22.0512 20.6102L22.1571 20.7161ZM21.109 23.2576C21.0941 22.3166 21.4679 21.4046 22.1571 20.7161L22.0512 20.6102C21.3342 21.3264 20.9437 22.2772 20.9593 23.26L21.109 23.2576ZM21.109 23.274V23.2588H20.9593V23.274H21.109ZM22.1723 25.8472C21.4834 25.159 21.109 24.2468 21.109 23.274H20.9593C20.9593 24.2862 21.3492 25.2366 22.0665 25.9531L22.1723 25.8472ZM24.7485 26.9094C23.7746 26.9094 22.8613 26.5354 22.1723 25.8472L22.0665 25.9531C22.7838 26.6697 23.7353 27.0591 24.7485 27.0591V26.9094ZM28.3879 23.2735C28.3729 25.2789 26.7549 26.9094 24.7485 26.9094V27.0591C26.8385 27.0591 28.5221 25.361 28.5377 23.2746L28.3879 23.2735ZM27.3246 20.7009C28.0136 21.389 28.3879 22.3013 28.3879 23.274H28.5377C28.5377 22.2619 28.1478 21.3114 27.4305 20.5949L27.3246 20.7009ZM24.7485 19.6387C25.7224 19.6387 26.6357 20.0127 27.3246 20.7009L27.4305 20.5949C26.7131 19.8784 25.7617 19.489 24.7485 19.489V19.6387Z" fill="url(#paint3_linear)" fill-opacity="0.5" mask="url(#path-5-inside-1)"/>
</g>
<path d="M37.2894 0H33.8214C33.7423 0 33.6718 0.0497247 33.6452 0.124215L31.9072 4.99053C31.8637 5.11242 31.954 5.24064 32.0835 5.24064H34.3581C34.488 5.24064 34.5784 5.3697 34.534 5.49177L33.4418 8.49534C33.3722 8.68689 33.6155 8.83602 33.7546 8.68701L38.0748 4.05819C38.1865 3.93855 38.1016 3.74332 37.938 3.74332H35.7046C35.5591 3.74332 35.4692 3.5846 35.5441 3.45985L37.4499 0.283462C37.5248 0.158711 37.4349 0 37.2894 0Z" fill="url(#paint4_linear)"/>
<defs>
<filter id="filter0_f" x="0.144665" y="0.366207" width="31.9572" height="29.6091" filterUnits="userSpaceOnUse" color-interpolation-filters="sRGB">
<feFlood flood-opacity="0" result="BackgroundImageFix"/>
<feBlend mode="normal" in="SourceGraphic" in2="BackgroundImageFix" result="shape"/>
<feGaussianBlur stdDeviation="3.18182" result="effect1_foregroundBlur"/>
</filter>
<filter id="filter1_b" x="3.47389" y="1.49732" width="42.549" height="39.492" filterUnits="userSpaceOnUse" color-interpolation-filters="sRGB">
<feFlood flood-opacity="0" result="BackgroundImageFix"/>
<feGaussianBlur in="BackgroundImage" stdDeviation="2.80749"/>
<feComposite in2="SourceAlpha" operator="in" result="effect1_backgroundBlur"/>
<feBlend mode="normal" in="SourceGraphic" in2="effect1_backgroundBlur" result="shape"/>
</filter>
<filter id="filter2_bd" x="13.1262" y="11.2923" width="27.2032" height="23.5972" filterUnits="userSpaceOnUse" color-interpolation-filters="sRGB">
<feFlood flood-opacity="0" result="BackgroundImageFix"/>
<feGaussianBlur in="BackgroundImage" stdDeviation="2.80749"/>
<feComposite in2="SourceAlpha" operator="in" result="effect1_backgroundBlur"/>
<feColorMatrix in="SourceAlpha" type="matrix" values="0 0 0 0 0 0 0 0 0 0 0 0 0 0 0 0 0 0 127 0"/>
<feOffset dx="1.87166" dy="1.87166"/>
<feGaussianBlur stdDeviation="1.87166"/>
<feColorMatrix type="matrix" values="0 0 0 0 1 0 0 0 0 0.447059 0 0 0 0 0.368627 0 0 0 0.5 0"/>
<feBlend mode="normal" in2="effect1_backgroundBlur" result="effect2_dropShadow"/>
<feBlend mode="normal" in="SourceGraphic" in2="effect2_dropShadow" result="shape"/>
</filter>
<linearGradient id="paint0_linear" x1="16.9861" y1="15.705" x2="1.83019" y2="32.1832" gradientUnits="userSpaceOnUse">
<stop stop-color="#FFA78F"/>
<stop offset="1" stop-color="#F23E2C"/>
</linearGradient>
<linearGradient id="paint1_linear" x1="14.3297" y1="10.692" x2="38.6725" y2="36.3521" gradientUnits="userSpaceOnUse">
<stop stop-color="white" stop-opacity="0.25"/>
<stop offset="1" stop-color="white" stop-opacity="0.15"/>
</linearGradient>
<linearGradient id="paint2_linear" x1="33.5819" y1="19.1405" x2="15.8019" y2="19.8892" gradientUnits="userSpaceOnUse">
<stop stop-color="white"/>
<stop offset="1" stop-color="white" stop-opacity="0.2"/>
</linearGradient>
<linearGradient id="paint3_linear" x1="34.03" y1="23.3525" x2="18.5185" y2="24.1871" gradientUnits="userSpaceOnUse">
<stop stop-color="white"/>
<stop offset="1" stop-color="white" stop-opacity="0"/>
</linearGradient>
<linearGradient id="paint4_linear" x1="35.5755" y1="5.30581" x2="29.1975" y2="7.47663" gradientUnits="userSpaceOnUse">
<stop stop-color="#FFA78F"/>
<stop offset="1" stop-color="#F23E2C"/>
</linearGradient>
</defs>
</svg>
