<svg id="service-gapps" viewBox="0 0 12 12" version="1.1" xmlns="http://www.w3.org/2000/svg" xmlns:xlink="http://www.w3.org/1999/xlink" xml:space="preserve" style="fill-rule:evenodd;clip-rule:evenodd;stroke-linejoin:round;stroke-miterlimit:1.41421;">
    <g>
        <path d="M4.161,0.331C2.701,0.832 1.457,1.926 0.763,3.307C0.522,3.786 0.347,4.29 0.239,4.817C-0.023,6.119 0.159,7.508 0.76,8.695C1.147,9.47 1.705,10.159 2.389,10.698C3.027,11.207 3.767,11.587 4.564,11.797C5.567,12.065 6.626,12.059 7.629,11.829C8.54,11.62 9.394,11.184 10.08,10.553C10.809,9.886 11.326,9.009 11.6,8.063C11.899,7.035 11.938,5.935 11.751,4.878L6.115,4.878L6.115,7.22L9.384,7.22C9.259,7.966 8.814,8.65 8.186,9.072C7.793,9.34 7.337,9.511 6.864,9.596C6.397,9.676 5.907,9.685 5.435,9.592C4.956,9.495 4.501,9.296 4.102,9.014C3.462,8.567 2.974,7.912 2.727,7.174C2.469,6.422 2.465,5.579 2.727,4.838C2.905,4.303 3.202,3.813 3.595,3.414C4.078,2.913 4.707,2.56 5.387,2.412C5.968,2.29 6.583,2.313 7.15,2.484C7.631,2.628 8.076,2.896 8.44,3.247L9.54,2.142C9.734,1.946 9.939,1.755 10.126,1.553C9.567,1.037 8.914,0.619 8.197,0.357C6.912,-0.112 5.462,-0.116 4.163,0.328L4.161,0.331Z" style="fill:white;fill-rule:nonzero;"/>
        <path d="M4.161,0.331C5.457,-0.116 6.912,-0.108 8.202,0.367C8.919,0.631 9.572,1.044 10.134,1.563C9.947,1.766 9.743,1.956 9.549,2.153L8.447,3.256C8.082,2.907 7.638,2.643 7.154,2.495C6.586,2.324 5.973,2.298 5.394,2.423C4.716,2.56 4.087,2.913 3.601,3.414C3.208,3.813 2.91,4.303 2.73,4.827L0.761,3.302C1.456,1.923 2.697,0.83 4.155,0.328L4.161,0.331Z" style="fill:rgb(234,67,53);fill-rule:nonzero;"/>
        <path d="M0.244,4.813C0.351,4.289 0.525,3.781 0.768,3.304C1.42,3.813 2.075,4.32 2.734,4.83C2.475,5.582 2.475,6.416 2.734,7.163L0.77,8.69C0.163,7.505 -0.021,6.115 0.244,4.812L0.244,4.813Z" style="fill:rgb(251,188,5);fill-rule:nonzero;"/>
        <path d="M6.122,4.874L11.765,4.874C11.952,5.928 11.909,7.029 11.613,8.06C11.34,9.005 10.82,9.882 10.095,10.55L8.189,9.069C8.827,8.648 9.271,7.964 9.397,7.216L6.126,7.216L6.126,4.874L6.122,4.874Z" style="fill:rgb(66,133,244);fill-rule:nonzero;"/>
        <path d="M0.763,8.692C1.418,8.186 2.073,7.678 2.727,7.166C2.978,7.906 3.462,8.56 4.101,9.009C4.499,9.289 4.959,9.487 5.436,9.585C5.906,9.682 6.393,9.669 6.867,9.588C7.338,9.497 7.793,9.326 8.188,9.064L10.095,10.545C9.408,11.172 8.546,11.605 7.638,11.821C6.632,12.049 5.568,12.049 4.568,11.787C3.775,11.571 3.03,11.195 2.389,10.682C1.705,10.147 1.147,9.463 0.76,8.689L0.763,8.692Z" style="fill:rgb(52,168,83);fill-rule:nonzero;"/>
    </g>
</svg>
