<svg width="40" height="41" viewBox="0 0 40 41" fill="none" xmlns="http://www.w3.org/2000/svg">
<path fill-rule="evenodd" clip-rule="evenodd" d="M4.00003 24.2818L4 24.2817L4 8.93548C4 5.10475 7.07401 2 10.8668 2L23.0405 2C27.0168 2 30.2591 5.25922 30.2591 9.27531V10.6128L30.2591 10.6128V25.959C30.2591 29.7898 27.1851 32.8945 23.3923 32.8945H11.2186C7.24227 32.8945 4.00003 29.6353 4.00003 25.6192V24.2818Z" fill="url(#paint0_linear)"/>
<g opacity="0.5" filter="url(#filter0_f)">
<rect x="8.96387" y="24.2119" width="16.038" height="13.7469" rx="1.90929" transform="rotate(-90 8.96387 24.2119)" fill="#8237FF" fill-opacity="0.5"/>
</g>
<g filter="url(#filter1_b)">
<path d="M16.6381 9.01738L27.9943 9.01738L35.9998 17.6287V32.9749C35.9998 36.8057 32.9258 39.9104 29.133 39.9104H16.9593C12.983 39.9104 9.74072 36.6512 9.74072 32.6351L9.74072 15.9838C9.74072 12.153 12.83 9.01738 16.6381 9.01738Z" fill="#BA90FF" fill-opacity="0.35"/>
<path d="M28.1341 8.88738C28.098 8.84852 28.0473 8.82645 27.9943 8.82645L16.6381 8.82645C12.7225 8.82645 9.54979 12.0496 9.54979 15.9838L9.54979 32.6351C9.54979 36.7554 12.8763 40.1013 16.9593 40.1013H29.133C33.033 40.1013 36.1907 36.9093 36.1907 32.9749V17.6287C36.1907 17.5805 36.1725 17.534 36.1396 17.4987L28.1341 8.88738Z" stroke="url(#paint1_linear)" stroke-width="0.381858" stroke-linecap="round" stroke-linejoin="round"/>
</g>
<mask id="path-5-inside-1" fill="white">
<path fill-rule="evenodd" clip-rule="evenodd" d="M22.7547 21.1362H17.5855C16.9585 21.1362 16.4385 21.6613 16.4385 22.2946C16.4385 22.928 16.9585 23.4377 17.5855 23.4377H22.7547C23.3818 23.4377 23.9017 22.928 23.9017 22.2946C23.9017 21.6613 23.3818 21.1362 22.7547 21.1362ZM17.5855 31.1605H25.9052C26.5323 31.1605 27.0522 30.6353 27.0522 30.002C27.0522 29.3687 26.5323 28.859 25.9052 28.859H17.5855C16.9585 28.859 16.4385 29.3687 16.4385 30.002C16.4385 30.6353 16.9585 31.1605 17.5855 31.1605Z"/>
</mask>
<path fill-rule="evenodd" clip-rule="evenodd" d="M22.7547 21.1362H17.5855C16.9585 21.1362 16.4385 21.6613 16.4385 22.2946C16.4385 22.928 16.9585 23.4377 17.5855 23.4377H22.7547C23.3818 23.4377 23.9017 22.928 23.9017 22.2946C23.9017 21.6613 23.3818 21.1362 22.7547 21.1362ZM17.5855 31.1605H25.9052C26.5323 31.1605 27.0522 30.6353 27.0522 30.002C27.0522 29.3687 26.5323 28.859 25.9052 28.859H17.5855C16.9585 28.859 16.4385 29.3687 16.4385 30.002C16.4385 30.6353 16.9585 31.1605 17.5855 31.1605Z" fill="url(#paint2_linear)"/>
<path d="M17.5855 21.2889H22.7547V20.9834H17.5855V21.2889ZM16.5912 22.2946C16.5912 21.7443 17.0442 21.2889 17.5855 21.2889V20.9834C16.8727 20.9834 16.2857 21.5784 16.2857 22.2946H16.5912ZM17.5855 23.2849C17.0416 23.2849 16.5912 22.8424 16.5912 22.2946H16.2857C16.2857 23.0135 16.8753 23.5904 17.5855 23.5904V23.2849ZM22.7547 23.2849H17.5855V23.5904H22.7547V23.2849ZM23.749 22.2946C23.749 22.8424 23.2986 23.2849 22.7547 23.2849V23.5904C23.4649 23.5904 24.0545 23.0135 24.0545 22.2946H23.749ZM22.7547 21.2889C23.296 21.2889 23.749 21.7443 23.749 22.2946H24.0545C24.0545 21.5784 23.4675 20.9834 22.7547 20.9834V21.2889ZM25.9052 31.0077H17.5855V31.3132H25.9052V31.0077ZM26.8995 30.002C26.8995 30.5524 26.4465 31.0077 25.9052 31.0077V31.3132C26.6181 31.3132 27.205 30.7182 27.205 30.002H26.8995ZM25.9052 29.0117C26.4491 29.0117 26.8995 29.4543 26.8995 30.002H27.205C27.205 29.2831 26.6154 28.7062 25.9052 28.7062V29.0117ZM17.5855 29.0117H25.9052V28.7062H17.5855V29.0117ZM16.5912 30.002C16.5912 29.4543 17.0416 29.0117 17.5855 29.0117V28.7062C16.8754 28.7062 16.2858 29.2831 16.2858 30.002H16.5912ZM17.5855 31.0077C17.0443 31.0077 16.5912 30.5524 16.5912 30.002H16.2858C16.2858 30.7182 16.8727 31.3132 17.5855 31.3132V31.0077Z" fill="url(#paint3_linear)" mask="url(#path-5-inside-1)"/>
<g filter="url(#filter2_bd)">
<mask id="path-7-inside-2" fill="white">
<path d="M29.4104 18.8621C30.4764 18.8729 31.9583 18.8775 33.2154 18.8729C33.8593 18.8714 34.1866 18.0944 33.74 17.6264C32.125 15.9303 29.2361 12.8951 27.5828 11.1589C27.1255 10.6785 26.3257 11.0091 26.3257 11.6748V15.7465C26.3257 17.4549 27.7189 18.8621 29.4104 18.8621"/>
</mask>
<path d="M29.4104 18.8621C30.4764 18.8729 31.9583 18.8775 33.2154 18.8729C33.8593 18.8714 34.1866 18.0944 33.74 17.6264C32.125 15.9303 29.2361 12.8951 27.5828 11.1589C27.1255 10.6785 26.3257 11.0091 26.3257 11.6748V15.7465C26.3257 17.4549 27.7189 18.8621 29.4104 18.8621" fill="url(#paint4_linear)"/>
<path d="M33.2154 18.8729L33.2151 18.7202L33.2149 18.7202L33.2154 18.8729ZM33.74 17.6264L33.6294 17.7317L33.6295 17.7318L33.74 17.6264ZM27.5828 11.1589L27.4722 11.2642L27.4722 11.2642L27.5828 11.1589ZM29.4089 19.0148C30.4756 19.0256 31.9582 19.0303 33.216 19.0256L33.2149 18.7202C31.9584 18.7248 30.4771 18.7202 29.4119 18.7094L29.4089 19.0148ZM33.2158 19.0256C33.9963 19.0238 34.388 18.0843 33.8505 17.5209L33.6295 17.7318C33.9851 18.1045 33.7223 18.7189 33.2151 18.7202L33.2158 19.0256ZM33.8506 17.521C32.2345 15.8239 29.3478 12.791 27.6934 11.0536L27.4722 11.2642C29.1243 12.9992 32.0155 16.0368 33.6294 17.7317L33.8506 17.521ZM27.6935 11.0536C27.1373 10.4694 26.1729 10.8767 26.1729 11.6748H26.4784C26.4784 11.1415 27.1138 10.8877 27.4722 11.2642L27.6935 11.0536ZM26.1729 11.6748V15.7465H26.4784V11.6748H26.1729ZM26.1729 15.7465C26.1729 17.5378 27.6331 19.0148 29.4104 19.0148V18.7093C27.8047 18.7093 26.4784 17.372 26.4784 15.7465H26.1729Z" fill="url(#paint5_linear)" mask="url(#path-7-inside-2)"/>
</g>
<defs>
<filter id="filter0_f" x="0.944851" y="0.154858" width="29.7849" height="32.0761" filterUnits="userSpaceOnUse" color-interpolation-filters="sRGB">
<feFlood flood-opacity="0" result="BackgroundImageFix"/>
<feBlend mode="normal" in="SourceGraphic" in2="BackgroundImageFix" result="shape"/>
<feGaussianBlur stdDeviation="4.00951" result="effect1_foregroundBlur"/>
</filter>
<filter id="filter1_b" x="0.194297" y="-0.529061" width="45.352" height="49.9859" filterUnits="userSpaceOnUse" color-interpolation-filters="sRGB">
<feFlood flood-opacity="0" result="BackgroundImageFix"/>
<feGaussianBlur in="BackgroundImage" stdDeviation="4.58229"/>
<feComposite in2="SourceAlpha" operator="in" result="effect1_backgroundBlur"/>
<feBlend mode="normal" in="SourceGraphic" in2="effect1_backgroundBlur" result="shape"/>
</filter>
<filter id="filter2_bd" x="20.5978" y="5.20328" width="19.076" height="19.3993" filterUnits="userSpaceOnUse" color-interpolation-filters="sRGB">
<feFlood flood-opacity="0" result="BackgroundImageFix"/>
<feGaussianBlur in="BackgroundImage" stdDeviation="2.86393"/>
<feComposite in2="SourceAlpha" operator="in" result="effect1_backgroundBlur"/>
<feColorMatrix in="SourceAlpha" type="matrix" values="0 0 0 0 0 0 0 0 0 0 0 0 0 0 0 0 0 0 127 0"/>
<feOffset dx="1.90929" dy="1.90929"/>
<feGaussianBlur stdDeviation="1.90929"/>
<feColorMatrix type="matrix" values="0 0 0 0 0.577356 0 0 0 0 0.359375 0 0 0 0 0.9375 0 0 0 0.25 0"/>
<feBlend mode="normal" in2="effect1_backgroundBlur" result="effect2_dropShadow"/>
<feBlend mode="normal" in="SourceGraphic" in2="effect2_dropShadow" result="shape"/>
</filter>
<linearGradient id="paint0_linear" x1="22.8476" y1="2" x2="22.8476" y2="32.8945" gradientUnits="userSpaceOnUse">
<stop stop-color="#BC94FF"/>
<stop offset="1" stop-color="#9F66FF"/>
</linearGradient>
<linearGradient id="paint1_linear" x1="13.9207" y1="12.6165" x2="34.0532" y2="33.8108" gradientUnits="userSpaceOnUse">
<stop stop-color="white" stop-opacity="0.25"/>
<stop offset="1" stop-color="white" stop-opacity="0"/>
</linearGradient>
<linearGradient id="paint2_linear" x1="26.2997" y1="22.9463" x2="14.4785" y2="23.3544" gradientUnits="userSpaceOnUse">
<stop stop-color="white"/>
<stop offset="1" stop-color="white" stop-opacity="0.2"/>
</linearGradient>
<linearGradient id="paint3_linear" x1="18.128" y1="22.304" x2="24.4362" y2="30.5762" gradientUnits="userSpaceOnUse">
<stop stop-color="white" stop-opacity="0.25"/>
<stop offset="1" stop-color="white" stop-opacity="0"/>
</linearGradient>
<linearGradient id="paint4_linear" x1="33.4057" y1="12.3656" x2="24.9167" y2="12.6311" gradientUnits="userSpaceOnUse">
<stop stop-color="white"/>
<stop offset="1" stop-color="white" stop-opacity="0.2"/>
</linearGradient>
<linearGradient id="paint5_linear" x1="27.5387" y1="11.8566" x2="32.6462" y2="17.9249" gradientUnits="userSpaceOnUse">
<stop stop-color="white" stop-opacity="0.25"/>
<stop offset="1" stop-color="white" stop-opacity="0"/>
</linearGradient>
</defs>
</svg>
