<svg width="25" height="22" viewBox="0 0 25 22" fill="none" xmlns="http://www.w3.org/2000/svg">
<path d="M22.1886 0H11.4523C10.2119 0 9.2026 1.00925 9.2026 2.2497V9.13697L7.20908 8.14562C7.14177 8.11205 7.07334 8.08036 7.00436 8.05034C7.58962 7.43934 7.9504 6.61151 7.9504 5.7007C7.9504 3.82595 6.42524 2.3006 4.55049 2.3006C2.67555 2.3006 1.15039 3.82595 1.15039 5.7007C1.15039 6.71946 1.60142 7.63456 2.31365 8.25823C1.00198 8.9962 0 10.4358 0 12.2192V14.5198C0 15.5102 0.643065 16.3531 1.53374 16.6528V20.6549C1.53374 21.0502 1.85424 21.3709 2.2497 21.3709H6.85091C7.24637 21.3709 7.56687 21.0502 7.56687 20.6549V12.6105L9.85909 13.7564C10.7363 14.195 11.9263 13.9336 12.4643 12.9351H15.0314L12.3131 20.4101C12.178 20.7817 12.3698 21.1926 12.7414 21.3276C13.1661 21.4822 13.5439 21.2157 13.6589 20.8995L16.5551 12.9351H17.057L19.9827 20.9018C20.0939 21.204 20.4688 21.4859 20.9018 21.3269C21.2728 21.1906 21.4633 20.7793 21.3269 20.408L18.5823 12.9351H22.1886C23.405 12.9351 24.4383 11.9539 24.4383 10.6854V2.2497C24.4383 0.981099 23.405 0 22.1886 0V0ZM2.58233 5.7007C2.58233 4.61538 3.46517 3.73254 4.5503 3.73254C5.63563 3.73254 6.51847 4.61538 6.51847 5.7007C6.51847 6.78584 5.63563 7.66868 4.5503 7.66868C3.46517 7.66868 2.58233 6.78584 2.58233 5.7007ZM11.2407 12.1696C11.2388 12.1748 11.237 12.1802 11.2353 12.1856C11.1864 12.3219 11.076 12.4368 10.9409 12.4923C10.7979 12.5505 10.637 12.5443 10.4995 12.4757C9.13809 11.7946 7.17086 10.8118 7.17086 10.8118C6.69578 10.5743 6.13494 10.9204 6.13494 11.4523V19.9389H2.96567V16.0535C2.96567 15.6582 2.64498 15.3375 2.2497 15.3375C1.79868 15.3375 1.43193 14.9708 1.43193 14.5198V12.2192C1.43193 10.4697 2.85641 9.1008 4.5503 9.1008H5.18293C5.66285 9.1008 6.14221 9.21341 6.57049 9.42727C6.57049 9.42727 10.1218 11.1933 11.0263 11.6438C11.22 11.74 11.3121 11.966 11.2407 12.1696ZM23.0064 10.6854C23.0064 10.9041 22.9216 11.1094 22.7672 11.2638C22.6152 11.4159 22.4044 11.5032 22.1886 11.5032H12.62C12.6187 11.4993 12.6178 11.4954 12.6165 11.4916L14.3934 7.9381C14.5701 7.5844 14.4269 7.15445 14.0732 6.97751C13.7197 6.80075 13.2896 6.94395 13.1126 7.29764L11.5972 10.3284C11.3147 10.1876 10.9864 10.0241 10.6345 9.84921V2.2497C10.6345 1.79887 11.0013 1.43193 11.4523 1.43193H22.1886C22.4044 1.43193 22.6152 1.51919 22.7674 1.67171C22.9216 1.82572 23.0064 2.031 23.0064 2.2497V10.6854Z" fill="#818385"/>
</svg>
