<svg width="24" height="24" viewBox="0 0 24 24" fill="none" xmlns="http://www.w3.org/2000/svg">
<path fill-rule="evenodd" clip-rule="evenodd" d="M11.9951 17.4267C11.5811 17.4267 11.2451 17.0907 11.2451 16.6767V14.1397C11.2451 13.7257 11.5811 13.3897 11.9951 13.3897C12.4091 13.3897 12.7451 13.7257 12.7451 14.1397V16.6767C12.7451 17.0907 12.4091 17.4267 11.9951 17.4267" fill="#ffffff"/>
<mask id="mask0" mask-type="alpha" maskUnits="userSpaceOnUse" x="2" y="4" width="20" height="11">
<path fill-rule="evenodd" clip-rule="evenodd" d="M2 4.58002H21.9898V14.891H2V4.58002Z" fill="white"/>
</mask>
<g mask="url(#mask0)">
<path fill-rule="evenodd" clip-rule="evenodd" d="M3.5 11.393C5.876 12.684 8.872 13.391 11.99 13.391C15.114 13.391 18.113 12.684 20.49 11.393V8.39102C20.49 7.11602 19.459 6.08002 18.19 6.08002H5.81C4.536 6.08002 3.5 7.11202 3.5 8.38102V11.393ZM11.99 14.891C8.445 14.891 5.028 14.033 2.371 12.477C2.141 12.343 2 12.097 2 11.83V8.38102C2 6.28502 3.709 4.58002 5.81 4.58002H18.19C20.286 4.58002 21.99 6.28902 21.99 8.39102V11.83C21.99 12.097 21.848 12.343 21.619 12.477C18.962 14.033 15.542 14.891 11.99 14.891V14.891Z" fill="#ffffff"/>
</g>
<mask id="mask1" mask-type="alpha" maskUnits="userSpaceOnUse" x="7" y="2" width="10" height="5">
<path fill-rule="evenodd" clip-rule="evenodd" d="M7.74512 2.00021H16.2451V6.07611H7.74512V2.00021Z" fill="white"/>
</mask>
<g mask="url(#mask1)">
<path fill-rule="evenodd" clip-rule="evenodd" d="M15.4951 6.07612C15.0811 6.07612 14.7451 5.74012 14.7451 5.32612V4.96012C14.7451 4.15512 14.0901 3.50012 13.2851 3.50012H10.7051C9.90012 3.50012 9.24512 4.15512 9.24512 4.96012V5.32612C9.24512 5.74012 8.90912 6.07612 8.49512 6.07612C8.08112 6.07612 7.74512 5.74012 7.74512 5.32612V4.96012C7.74512 3.32812 9.07312 2.00012 10.7051 2.00012H13.2851C14.9171 2.00012 16.2451 3.32812 16.2451 4.96012V5.32612C16.2451 5.74012 15.9091 6.07612 15.4951 6.07612" fill="#ffffff"/>
</g>
<path fill-rule="evenodd" clip-rule="evenodd" d="M17.7946 21.7402H6.19457C4.11957 21.7402 2.37257 20.1192 2.21557 18.0492L2.02557 15.5402C1.99457 15.1272 2.30457 14.7662 2.71757 14.7352C3.13257 14.7202 3.49057 15.0132 3.52257 15.4272L3.71157 17.9352C3.80957 19.2272 4.89957 20.2402 6.19457 20.2402H17.7946C19.0896 20.2402 20.1806 19.2272 20.2776 17.9352L20.4676 15.4272C20.4996 15.0132 20.8666 14.7192 21.2726 14.7352C21.6856 14.7662 21.9946 15.1272 21.9636 15.5402L21.7736 18.0492C21.6166 20.1192 19.8696 21.7402 17.7946 21.7402" fill="#ffffff"/>
</svg>
